<svg id="Layer_1" data-name="Layer 1" xmlns="http://www.w3.org/2000/svg" viewBox="0 0 140 140"><defs><style>.cls-1{opacity:0.1;}.cls-2{fill:#fff;}</style></defs><title>col</title><rect class="cls-1" x="-19" y="-230" width="657" height="483"/><path class="cls-2" d="M76.29,25.89,84,18.77a9.27,9.27,0,0,1,15.53,7.48l-.76,10.47a9.27,9.27,0,0,0,7.84,9.83L117,48.13a9.27,9.27,0,0,1,3.84,16.81l-8.65,5.93a9.26,9.26,0,0,0-2.8,12.26l5.22,9.1a9.26,9.26,0,0,1-10.75,13.47l-10-3.07a9.27,9.27,0,0,0-11.33,5.46l-3.85,9.76a9.27,9.27,0,0,1-17.24,0l-3.85-9.76a9.27,9.27,0,0,0-11.33-5.46l-10,3.07A9.26,9.26,0,0,1,25.42,92.23l5.22-9.1a9.26,9.26,0,0,0-2.8-12.26l-8.65-5.93A9.27,9.27,0,0,1,23,48.13L33.4,46.55a9.27,9.27,0,0,0,7.84-9.83l-.76-10.47A9.27,9.27,0,0,1,56,18.77l7.7,7.12A9.25,9.25,0,0,0,76.29,25.89Z"/></svg>