<svg id="Layer_1" data-name="Layer 1" xmlns="http://www.w3.org/2000/svg" viewBox="0 0 120 120"><defs><style>.cls-1{fill:#010101;}.cls-2{fill:#ffcb2a;}</style></defs><path class="cls-1" d="M33.92,59.09a8,8,0,1,0-8-8A8,8,0,0,0,33.92,59.09Zm0-13.34a5.34,5.34,0,1,1-5.33,5.35h0A5.34,5.34,0,0,1,33.92,45.75Z"/><path class="cls-1" d="M31.26,31.09a6.66,6.66,0,0,1,6.66,6.66,1.34,1.34,0,1,0,2.67.23.88.88,0,0,0,0-.23,6.67,6.67,0,0,1,6.67-6.66,1.34,1.34,0,0,0,0-2.67,6.67,6.67,0,0,1-6.67-6.67,1.34,1.34,0,0,0-2.67,0,6.67,6.67,0,0,1-6.66,6.67A1.34,1.34,0,0,0,31,31.09Zm8-4.54a9.42,9.42,0,0,0,3.2,3.2,9.42,9.42,0,0,0-3.2,3.2,9.42,9.42,0,0,0-3.2-3.2A9.42,9.42,0,0,0,39.26,26.55Z"/><path class="cls-1" d="M84.59,87.09a6.69,6.69,0,0,1-6.67-6.67,1.33,1.33,0,1,0-2.66,0,6.69,6.69,0,0,1-6.67,6.67,1.33,1.33,0,0,0,0,2.66,6.69,6.69,0,0,1,6.67,6.67,1.33,1.33,0,1,0,2.66,0,6.69,6.69,0,0,1,6.67-6.67,1.33,1.33,0,0,0,0-2.66Zm-8,4.53a9.42,9.42,0,0,0-3.2-3.2,9.42,9.42,0,0,0,3.2-3.2,9.42,9.42,0,0,0,3.2,3.2A9.42,9.42,0,0,0,76.59,91.62Z"/><path class="cls-1" d="M52.59,47.09a4,4,0,0,0-4,4v5.33H41.92v2.67h8a1.34,1.34,0,0,0,1.34-1.34V51.09a1.33,1.33,0,1,1,2.66,0h0v9.33a1.32,1.32,0,0,1-1.31,1.33H41.92a1.34,1.34,0,0,0-1.33,1.34v6.66a1.39,1.39,0,0,0,.39,1L48.2,78a1.36,1.36,0,0,1,.39,1V91.19a1.34,1.34,0,0,1-2.67,0V80.42a1.32,1.32,0,0,0-.39-.94L40.2,74.14a1.34,1.34,0,0,0-1.89,0l-4,4a1.34,1.34,0,0,0,0,1.89l3.22,3.22a1.32,1.32,0,0,1,.39.94V96.42a1.33,1.33,0,1,1-2.66,0V85.75a1.32,1.32,0,0,0-.39-.94L29,78.92a1.33,1.33,0,0,1-.39-.94V73.75h2.67a4,4,0,0,0,0-8H28.59v-4H25.92v5.34a1.35,1.35,0,0,0,1.34,1.33h4a1.34,1.34,0,0,1,0,2.67H24.59a1.34,1.34,0,0,1-1.33-1.33h0V60.42a1.32,1.32,0,0,1,1.31-1.33h0V56.42a4,4,0,0,0-4,4v9.33a4,4,0,0,0,4,4h1.33V78a4,4,0,0,0,1.18,2.83l5.49,5.5V96.42a4,4,0,0,0,8,0V84.19a4,4,0,0,0-1.17-2.83l-2.28-2.27L39.26,77l4,4V91.09a4,4,0,0,0,8,0V78.86A4,4,0,0,0,50.08,76L43.26,69.2V64.42h9.33a4,4,0,0,0,4-4V51.09A4,4,0,0,0,52.59,47.09Z"/><path class="cls-1" d="M81.92,36.42a8,8,0,1,0-8-8A8,8,0,0,0,81.92,36.42Zm0-13.33a5.33,5.33,0,1,1-5.33,5.33,5.32,5.32,0,0,1,5.33-5.33Z"/><path class="cls-1" d="M96.59,33.75h-8v2.67h8a1.32,1.32,0,0,1,1.33,1.33h0v8a1.33,1.33,0,0,1-2.66,0h0V40.42a1.32,1.32,0,0,0-1.33-1.33H88.59a1.32,1.32,0,0,0-1.33,1.31V55.32a1.33,1.33,0,0,1-.39.94l-4.56,4.55a1.34,1.34,0,0,0,0,1.89l6.12,6.11a1.34,1.34,0,0,1,0,1.89l-.23.22a1.34,1.34,0,0,1-1.89,0l-8.23-8.23a1.33,1.33,0,0,1,0-1.88l3.45-3.45a1.33,1.33,0,0,0,0-1.88l-4-4a1.33,1.33,0,0,0-1.88,0l-5.34,5.33a1.32,1.32,0,0,0-.39.94V68.42a1.33,1.33,0,1,1-2.66,0h0V56.19a1.32,1.32,0,0,1,.39-.94L74.87,48a1.33,1.33,0,0,0,.39-.94V40.42a1.32,1.32,0,0,0-1.33-1.33h-8a1.35,1.35,0,0,1-1.33-1.34V28.42a1.34,1.34,0,0,1,2.67,0v6.67a1.34,1.34,0,0,0,1.33,1.33h5.33V33.75h-4V28.42a4,4,0,0,0-8,0v9.33a4,4,0,0,0,4,4h6.67v4.79l-6.83,6.82a4,4,0,0,0-1.17,2.83V68.42a4,4,0,0,0,8,0V58.31l4-4,2.11,2.11-2.5,2.5a4,4,0,0,0,0,5.65h0l8.23,8.23a4,4,0,0,0,5.65,0l.23-.23a4,4,0,0,0,0-5.65l-5.17-5.18,3.61-3.61a3.9,3.9,0,0,0,1.17-2.82V41.75h2.67v4a4,4,0,0,0,8,0v-8A4,4,0,0,0,96.59,33.75Z"/><rect class="cls-1" x="80.59" y="27.09" width="2.67" height="4"/><path class="cls-1" d="M37.92,52.42v-4H35.26v2.67H32.59v2.66h4a1.32,1.32,0,0,0,1.33-1.31Z"/><path class="cls-2" d="M32.6,57.29a8,8,0,1,0-8-8A8,8,0,0,0,32.6,57.29ZM32.6,44a5.34,5.34,0,1,1-5.33,5.35h0A5.33,5.33,0,0,1,32.6,44Z"/><path class="cls-2" d="M29.94,29.29A6.66,6.66,0,0,1,36.6,36a1.34,1.34,0,0,0,2.67.23.88.88,0,0,0,0-.23,6.67,6.67,0,0,1,6.67-6.66,1.34,1.34,0,0,0,0-2.67A6.67,6.67,0,0,1,39.27,20a1.34,1.34,0,0,0-2.67,0,6.67,6.67,0,0,1-6.66,6.67,1.33,1.33,0,0,0-1.45,1.22,1.35,1.35,0,0,0,1.22,1.45Zm8-4.54a9.42,9.42,0,0,0,3.2,3.2,9.42,9.42,0,0,0-3.2,3.2,9.42,9.42,0,0,0-3.2-3.2A9.42,9.42,0,0,0,37.94,24.75Z"/><path class="cls-2" d="M83.27,85.29a6.69,6.69,0,0,1-6.67-6.67,1.33,1.33,0,0,0-2.66,0,6.69,6.69,0,0,1-6.67,6.67,1.33,1.33,0,1,0,0,2.66,6.69,6.69,0,0,1,6.67,6.67,1.33,1.33,0,0,0,2.66,0A6.69,6.69,0,0,1,83.27,88a1.33,1.33,0,1,0,0-2.66Zm-8,4.53a9.42,9.42,0,0,0-3.2-3.2,9.42,9.42,0,0,0,3.2-3.2,9.42,9.42,0,0,0,3.2,3.2A9.42,9.42,0,0,0,75.27,89.82Z"/><path class="cls-2" d="M51.27,45.29a4,4,0,0,0-4,4v5.33H40.6v2.67h8A1.34,1.34,0,0,0,49.94,56V49.29a1.33,1.33,0,0,1,2.66,0h0v9.33A1.32,1.32,0,0,1,51.29,60H40.6a1.33,1.33,0,0,0-1.33,1.34V68a1.35,1.35,0,0,0,.39,1l7.22,7.21a1.36,1.36,0,0,1,.39,1V89.39a1.34,1.34,0,0,1-2.67,0V78.62a1.32,1.32,0,0,0-.39-.94l-5.33-5.34a1.34,1.34,0,0,0-1.89,0l-4,4a1.34,1.34,0,0,0,0,1.89l3.22,3.22a1.32,1.32,0,0,1,.39.94V94.62a1.33,1.33,0,1,1-2.66,0V84a1.32,1.32,0,0,0-.39-.94l-5.89-5.89a1.33,1.33,0,0,1-.39-.94V72h2.67a4,4,0,0,0,0-8H27.27V60H24.6v5.34a1.34,1.34,0,0,0,1.34,1.33h4a1.34,1.34,0,0,1,0,2.67H23.27A1.34,1.34,0,0,1,21.94,68h0V58.62a1.31,1.31,0,0,1,1.31-1.33h0V54.62a4,4,0,0,0-4,4V68a4,4,0,0,0,4,4H24.6v4.23A4,4,0,0,0,25.78,79l5.49,5.5V94.62a4,4,0,1,0,8,0V82.39a4,4,0,0,0-1.17-2.83l-2.28-2.27,2.12-2.12,4,4V89.29a4,4,0,1,0,8,0V77.06a4,4,0,0,0-1.18-2.83L41.94,67.4V62.62h9.33a4,4,0,0,0,4-4V49.29A4,4,0,0,0,51.27,45.29Z"/><path class="cls-2" d="M80.6,34.62a8,8,0,1,0-8-8A8,8,0,0,0,80.6,34.62Zm0-13.33a5.33,5.33,0,1,1-5.33,5.33,5.33,5.33,0,0,1,5.33-5.33Z"/><path class="cls-2" d="M95.27,32h-8v2.67h8A1.33,1.33,0,0,1,96.6,36h0v8a1.33,1.33,0,0,1-2.66,0h0V38.62a1.33,1.33,0,0,0-1.33-1.33H87.27a1.32,1.32,0,0,0-1.33,1.31V53.52a1.33,1.33,0,0,1-.39.94L81,59a1.34,1.34,0,0,0,0,1.89L87.11,67a1.34,1.34,0,0,1,0,1.89l-.23.22a1.34,1.34,0,0,1-1.89,0l-8.23-8.23a1.33,1.33,0,0,1,0-1.88l3.45-3.45a1.33,1.33,0,0,0,0-1.88l-4-4a1.33,1.33,0,0,0-1.88,0L69,55a1.32,1.32,0,0,0-.39.94V66.62a1.33,1.33,0,0,1-2.66,0h0V54.39a1.32,1.32,0,0,1,.39-.94l7.22-7.22a1.33,1.33,0,0,0,.39-.94V38.62a1.33,1.33,0,0,0-1.33-1.33h-8A1.34,1.34,0,0,1,63.27,36V26.62a1.34,1.34,0,0,1,2.67,0v6.67a1.34,1.34,0,0,0,1.33,1.33H72.6V32h-4V26.62a4,4,0,0,0-8,0V36a4,4,0,0,0,4,4h6.67v4.79l-6.83,6.82a4,4,0,0,0-1.17,2.83V66.62a4,4,0,0,0,8,0V56.51l4-4,2.11,2.11-2.5,2.5a4,4,0,0,0,0,5.65h0L83.11,71a4,4,0,0,0,5.65,0l.23-.23a4,4,0,0,0,0-5.65L83.82,60l3.61-3.61a4,4,0,0,0,1.17-2.82V40h2.67v4a4,4,0,0,0,8,0V36A4,4,0,0,0,95.27,32Z"/><rect class="cls-2" x="79.27" y="25.29" width="2.67" height="4"/><path class="cls-2" d="M36.6,50.62v-4H33.94v2.67H31.27V52h4a1.33,1.33,0,0,0,1.33-1.31Z"/></svg>