<svg id="Layer_1" data-name="Layer 1" xmlns="http://www.w3.org/2000/svg" viewBox="0 0 140 140"><defs><style>.cls-1{fill:#2563eb;}</style></defs><path class="cls-1" d="M105.52,41.15V22.72a2.71,2.71,0,0,0-1.11-2.19,2.74,2.74,0,0,0-2.43-.41L47.08,37.56a2.73,2.73,0,0,0-1.89,2.6V93.89a18.4,18.4,0,0,0-10.42-3.08,18.33,18.33,0,0,0-10.93,3.44,11,11,0,0,0,0,18.31A18.29,18.29,0,0,0,34.77,116a18.28,18.28,0,0,0,10.92-3.44,11.41,11.41,0,0,0,4.93-9.15V60.6l49.47-15.73v31.5a19.12,19.12,0,0,0-21.35.36,11,11,0,0,0,0,18.31,19.07,19.07,0,0,0,21.85,0,11.43,11.43,0,0,0,4.93-9.16ZM34.77,110.57c-5.66,0-10.42-3.28-10.42-7.16s4.76-7.17,10.42-7.17,10.42,3.28,10.42,7.17-4.77,7.16-10.42,7.16ZM50.62,54.89V42.13l49.47-15.71V39.17ZM89.69,93.05c-5.66,0-10.42-3.28-10.42-7.17S84,78.72,89.69,78.72s10.42,3.28,10.42,7.16-4.79,7.17-10.42,7.17Zm0,0"/></svg>