<svg id="Layer_1" data-name="Layer 1" xmlns="http://www.w3.org/2000/svg" viewBox="0 0 61.33 80"><defs><style>.cls-1{fill:#4366b0;}</style></defs><path class="cls-1" d="M89.33,23.45H38.67a9.34,9.34,0,0,0-9.34,9.33V94.11a9.35,9.35,0,0,0,9.34,9.34h48A1.34,1.34,0,0,0,88,102.11V87.45h1.33a1.34,1.34,0,0,0,1.34-1.34V24.78a1.34,1.34,0,0,0-1.34-1.33ZM32,87.59V32.78a6.68,6.68,0,0,1,6.67-6.67H40V84.78H38.67c-.32,0-.64,0-1,0l-.31,0c-.21,0-.42.05-.62.09l-.38.1c-.18.05-.35.08-.52.14l-.4.14-.47.17-.39.19c-.12.07-.29.14-.43.21l-.37.23-.4.25c-.13.08-.24.18-.36.26s-.25.18-.36.28a3.28,3.28,0,0,0-.34.31c-.11.1-.22.19-.33.3s0,0,0,0Zm53.33,5.19H38.67v2.67H85.33v5.33H38.67a6.67,6.67,0,1,1,0-13.33H85.33Zm2.67-8H42.67V26.11H88Zm0,0" transform="translate(-29.33 -23.45)"/><path class="cls-1" d="M64.69,68.62a1.32,1.32,0,0,0,1.28,0c.63-.34,15.36-8.48,15.36-17.17a9.33,9.33,0,0,0-16-6.53,9.33,9.33,0,0,0-16,6.53c0,8.69,14.74,16.83,15.36,17.17Zm-6-23.84a6.64,6.64,0,0,1,5.55,3,1.4,1.4,0,0,0,1.11.56,1.38,1.38,0,0,0,1.11-.56,6.67,6.67,0,0,1,12.23,3.68c0,5.6-9.09,12-13.34,14.47C61.09,63.47,52,57.06,52,51.45a6.68,6.68,0,0,1,6.67-6.67Zm0,0" transform="translate(-29.33 -23.45)"/></svg>