<svg id="Layer_1" data-name="Layer 1" xmlns="http://www.w3.org/2000/svg" viewBox="0 0 140 140"><defs><style>.cls-1{fill:#2563eb;}</style></defs><path class="cls-1" d="M70.75,91.38V43.22a1.61,1.61,0,1,0-3.22,0V91.38a1.61,1.61,0,1,0,3.22,0Z"/><path class="cls-1" d="M117.48,31.71c-3.41,0-7.66-1.47-12.15-3-5.7-2-12.16-4.21-18.86-4.21-7.75,0-12.47,3.4-15.07,6.25a18.72,18.72,0,0,0-2.3,3.08,19.31,19.31,0,0,0-2.3-3.08c-2.6-2.85-7.33-6.25-15.08-6.25-6.7,0-13.15,2.24-18.85,4.21-4.5,1.56-8.75,3-12.16,3a1.61,1.61,0,0,0-1.61,1.61v65a1.61,1.61,0,0,0,1.61,1.61c3.95,0,8.45-1.55,13.21-3.2,5.46-1.89,11.64-4,17.8-4,5.28,0,9.55,1.74,12.7,5.19a1.61,1.61,0,0,0,2.38-2.18c-2.6-2.84-7.33-6.24-15.08-6.24-6.7,0-13.15,2.24-18.85,4.21-3.82,1.32-7.45,2.58-10.55,2.93V34.86c3.55-.34,7.48-1.7,11.6-3.13,5.46-1.89,11.64-4,17.8-4,12.45,0,15.7,9.88,15.84,10.3a1.61,1.61,0,0,0,3.08,0c0-.1,3.31-10.3,15.83-10.3,6.16,0,12.34,2.14,17.8,4,4.13,1.43,8,2.79,11.6,3.13V96.58a53.69,53.69,0,0,1-10.54-2.93c-5.7-2-12.16-4.21-18.86-4.21-7.75,0-12.47,3.4-15.07,6.24a1.61,1.61,0,0,0,2.38,2.18c3.14-3.45,7.42-5.19,12.69-5.19,6.16,0,12.34,2.14,17.8,4,4.76,1.65,9.26,3.2,13.21,3.2a1.62,1.62,0,0,0,1.62-1.61v-65a1.62,1.62,0,0,0-1.62-1.61Z"/><path class="cls-1" d="M117.48,106c-3.41,0-7.66-1.47-12.15-3-5.7-2-12.16-4.21-18.86-4.21a19.8,19.8,0,0,0-14.58,5.72H66.3c-2.69-2.72-7.3-5.72-14.58-5.72C45,98.74,38.57,101,32.87,103c-4.5,1.56-8.75,3-12.16,3a1.61,1.61,0,0,0,0,3.22c3.95,0,8.45-1.55,13.21-3.2,5.46-1.89,11.64-4,17.8-4,5.28,0,9.55,1.74,12.7,5.19a1.61,1.61,0,0,0,1.19.53h7a1.65,1.65,0,0,0,1.19-.53c3.14-3.45,7.42-5.19,12.69-5.19,6.16,0,12.34,2.14,17.8,4,4.76,1.65,9.26,3.2,13.21,3.2a1.61,1.61,0,1,0,0-3.22Z"/></svg>