<svg id="Layer_1" data-name="Layer 1" xmlns="http://www.w3.org/2000/svg" viewBox="0 0 140 140"><defs><style>.cls-1{fill:#2563eb;}</style></defs><path class="cls-1" d="M91,41.56H59.47a1.49,1.49,0,0,0,0,3H91a1.49,1.49,0,0,0,0-3Zm0,0"/><path class="cls-1" d="M52.57,41.56h-5a1.49,1.49,0,0,0,0,3h5a1.49,1.49,0,1,0,0-3Zm0,0"/><path class="cls-1" d="M63.07,87H47.58a1.48,1.48,0,1,0,0,3H63.07a1.48,1.48,0,0,0,0-3Zm0,0"/><path class="cls-1" d="M69.29,71.83H47.58a1.49,1.49,0,0,0,0,3H69.29a1.49,1.49,0,0,0,0-3Zm0,0"/><path class="cls-1" d="M79.86,56.7H47.58a1.48,1.48,0,0,0,0,3H79.86a1.48,1.48,0,1,0,0-3Zm0,0"/><path class="cls-1" d="M107.89,26.41H46.67a9.84,9.84,0,0,0-9.83,9.83V94.52H21.43a1.49,1.49,0,0,0-1.05.44A1.52,1.52,0,0,0,20,96c.06,5.88,4.29,10.32,9.83,10.32h61.4A9.85,9.85,0,0,0,101,96.5v-18a1.48,1.48,0,1,0-3,0v18a6.89,6.89,0,0,1-6.88,6.88H91c-3.88,0-6.83-3.18-6.87-7.39a1.49,1.49,0,0,0-1.48-1.47H39.8V36.24a6.88,6.88,0,0,1,6.87-6.87h54.19l-.13.14-.15.16c0,.06-.11.12-.16.19l-.15.17-.14.19-.15.18-.13.19-.14.2-.12.19-.13.2-.12.21a2,2,0,0,0-.11.2l-.11.21L99,32a1.47,1.47,0,0,1-.1.22l-.09.22-.09.22-.09.22c0,.08,0,.15-.07.23s0,.15-.08.22a2.17,2.17,0,0,1-.07.24l-.06.23-.06.25a1.74,1.74,0,0,1,0,.22,2.34,2.34,0,0,0,0,.26,1.7,1.7,0,0,0,0,.22,2.7,2.7,0,0,0,0,.28,1.49,1.49,0,0,0,0,.21,3.16,3.16,0,0,0,0,.32c0,.06,0,.11,0,.17s0,.34,0,.5V49.39a1.48,1.48,0,1,0,3,0V38.22h15.23a1.5,1.5,0,0,0,1.06-.44,1.48,1.48,0,0,0,.43-1.05c-.06-5.89-4.29-10.32-9.85-10.32ZM81.27,97.49c0,.15,0,.3.07.45l0,.15.06.3c0,.06,0,.12,0,.18l.06.26c0,.06,0,.12,0,.18s0,.17.07.25l.06.19.08.24a1.34,1.34,0,0,0,.07.18,1.55,1.55,0,0,0,.08.23,1.34,1.34,0,0,1,.07.18l.11.23a1.22,1.22,0,0,0,.07.17l.12.24a1,1,0,0,0,.07.15l.15.27,0,.1c.07.13.15.25.22.37l.06.08c.06.09.11.18.18.27a.91.91,0,0,0,.08.13,1.77,1.77,0,0,1,.16.22.64.64,0,0,1,.1.13l.16.2.11.13.17.19a.69.69,0,0,1,.11.13.34.34,0,0,1,.08.09H29.78a6.86,6.86,0,0,1-6.72-5.89Zm19.82-62.23v0l0-.14,0-.19,0-.14c0-.06,0-.12,0-.17s0-.1,0-.15l0-.17c0-.05,0-.09,0-.14l.06-.16a.88.88,0,0,1,0-.15l.06-.15.06-.15.06-.13.08-.16.06-.12s0-.11.08-.17l0-.06c.14-.24.29-.48.45-.7h0l.16-.21,0,0,.16-.2,0,0c0-.07.11-.13.17-.2l0,0,.19-.19a0,0,0,0,0,0,0l.21-.19h0a6.87,6.87,0,0,1,3.26-1.58h0l.3,0h0l.3,0h0l.27,0h.34a6.86,6.86,0,0,1,6.72,5.89Zm0,0"/><path class="cls-1" d="M121,53.71v-.05a1.29,1.29,0,0,0-.08-.4v0a1.54,1.54,0,0,0-.08-.19v0a1.3,1.3,0,0,0-.1-.15l0,0-.13-.15,0,0a.69.69,0,0,0-.13-.11l0,0a1,1,0,0,0-.17-.1l0,0-.19-.08h0l-.19,0h0l-.2,0c-12.4-.32-28.56,2.66-36.73,12C79.26,68.31,77.61,73.49,76,78.5l-.39,1.23s0,0,0,0l-2.5,8.89a1.49,1.49,0,0,0,1,1.83,1.44,1.44,0,0,0,.41,0A1.47,1.47,0,0,0,76,89.47l2.32-8.24a46.41,46.41,0,0,1,8.21-2.79c1.6-.44,3.42-.93,5.62-1.61,4.74-1.46,13.85-7.57,18.05-12.11a102.62,102.62,0,0,1,10.31-9.86h0a1,1,0,0,0,.15-.14h0l.12-.16,0,0a1.56,1.56,0,0,0,.17-.37s0,0,0,0a1.29,1.29,0,0,0,0-.19h0s0-.09,0-.14v0ZM85.06,66.18c3.45-3.93,8.73-6.9,15.71-8.82a57.17,57.17,0,0,1,5.89-1.27A115.56,115.56,0,0,0,93.74,63.6a118.86,118.86,0,0,0-12.86,9.84,24.35,24.35,0,0,1,4.18-7.26ZM108,62.71C103.89,67.13,95.08,72.81,91.22,74c-2.15.66-3.94,1.15-5.52,1.58-1.42.39-2.72.74-4,1.15.58-.55,1.25-1.17,2-1.86a117.82,117.82,0,0,1,11.66-8.8c7.48-5,14.24-8.5,19.21-10-2.16,2-4.28,4.12-6.63,6.66Zm0,0"/></svg>