<svg id="Layer_1" data-name="Layer 1" xmlns="http://www.w3.org/2000/svg" viewBox="0 0 140 140"><defs><style>.cls-1{opacity:0.1;}.cls-2{fill:#fff;}</style></defs><title>num</title><rect class="cls-1" x="-185" y="-175" width="657" height="483"/><path class="cls-2" d="M52.75,73.53c0-17.07,10-29,25.21-29a16.86,16.86,0,0,1,6.12.86l-.79,6.77A13.88,13.88,0,0,0,78,51.21c-7.56,0-14.91,5.61-15.84,17.78h.14A17,17,0,0,1,73,65.46c8.57,0,14.26,5.33,14.26,14.12,0,10.15-7.71,15.91-16.78,15.91C60.1,95.49,52.75,88.07,52.75,73.53Zm9.37,1.73c.21,9.5,2.3,14.4,8,14.4C75,89.66,78,86,78,80.44c0-5.4-2.6-9.14-7.56-9.14C67.23,71.3,63.56,72.81,62.12,75.26Z"/></svg>