<svg id="Layer_1" data-name="Layer 1" xmlns="http://www.w3.org/2000/svg" viewBox="0 0 140 140"><defs><style>.cls-1{opacity:0.1;}.cls-2{fill:#fff;}</style></defs><title>num</title><rect class="cls-1" x="-25" y="-175" width="657" height="483"/><path class="cls-2" d="M55.2,87.35A40.29,40.29,0,0,0,65.64,89c6.2,0,10.66-3.31,10.66-9.36S72,71,66.65,71a28.8,28.8,0,0,0-9.36,1.8l-1.44-.94V45.23H72.56a86.8,86.8,0,0,0,11.52-.72l-.58,7.92H63.27v13A31.2,31.2,0,0,1,70,64.6c8.56,0,15.62,4.75,15.62,14.4,0,10.44-8.35,16.49-19.87,16.49a44.18,44.18,0,0,1-11.45-1.66Z"/></svg>