<svg id="Layer_1" data-name="Layer 1" xmlns="http://www.w3.org/2000/svg" viewBox="0 0 140 140"><defs><style>.cls-1{opacity:0.1;}.cls-2{fill:#fff;}</style></defs><title>num</title><rect class="cls-1" x="-505" y="-175" width="657" height="483"/><path class="cls-2" d="M52.32,83c0-6.7,5.76-11.45,11.45-13.39v-.22C59,66.76,54.12,62.87,54.12,57c0-7.06,6.84-12.46,16.28-12.46,9.86,0,15.41,5.9,15.41,12,0,5.12-4,9.72-9.58,12.32V69c5.69,2.45,11.45,6.41,11.45,13,0,7.21-6.77,13.47-18.15,13.47C59.31,95.49,52.32,90.38,52.32,83ZM61,82.82c0,4.25,3.68,7.27,8.86,7.27S79,87.21,79,82.82s-3.89-7.2-10-9.65C64.78,75,61,78.57,61,82.82Zm1.59-26.36c0,3.82,3.45,7.13,8.35,9.36,3.74-2.3,6.48-5.83,6.48-9.36,0-3.89-3.17-6.55-7.27-6.55S62.55,52.5,62.55,56.46Z"/></svg>