<svg id="Layer_1" data-name="Layer 1" xmlns="http://www.w3.org/2000/svg" viewBox="0 0 140 140"><defs><style>.cls-1{opacity:0.1;}.cls-2{fill:#fff;}</style></defs><title>num</title><rect class="cls-1" x="-345" y="-15" width="657" height="483"/><path class="cls-2" d="M69.64,44.51c8,0,13.83,4.32,13.83,10.66,0,5.47-4.25,10.8-11.6,13.1,8.36.87,14,5.26,14,12.6,0,8.64-7.85,14.62-19.58,14.62a48.91,48.91,0,0,1-12.1-1.66L55,87.57A43.14,43.14,0,0,0,65.9,89.23c6.19,0,10.65-3,10.65-8,0-5.61-5.54-7.56-12-7.56a30.28,30.28,0,0,0-5.62.51V68C68,66.47,74.18,62.51,74.18,57.11c0-3.45-2.38-5.9-7.13-5.9-3.75,0-8.14,1.51-11.74,3.53l-.43-6.34A32.64,32.64,0,0,1,69.64,44.51Z"/></svg>