<svg id="Layer_1" data-name="Layer 1" xmlns="http://www.w3.org/2000/svg" viewBox="0 0 140 140"><defs><style>.cls-1{opacity:0.1;}.cls-2{fill:#fff;}</style></defs><title>num</title><rect class="cls-1" x="-25" y="-335" width="657" height="483"/><path class="cls-2" d="M52.75,61.22c0-10.45,7.64-16.71,16.93-16.71,9.86,0,17.57,7.2,17.57,21.6,0,15.91-9.44,29.38-24.92,29.38a22.17,22.17,0,0,1-5.54-.58l-.08-6.62a22.27,22.27,0,0,0,4.9.5C71,88.79,76.66,82.53,78,72h-.15c-2.23,2.52-6.12,3.81-10.29,3.81C58.73,75.83,52.75,70.36,52.75,61.22ZM62,60.71c0,5.69,2.81,9.36,8.07,9.36a9.27,9.27,0,0,0,7.77-3.74C77.81,56,74.64,50.77,69.53,50.77,65,50.77,62,54.88,62,60.71Z"/></svg>