<svg id="Layer_1" data-name="Layer 1" xmlns="http://www.w3.org/2000/svg" viewBox="0 0 140 140"><defs><style>.cls-1{opacity:0.1;}.cls-2{fill:#fff;}</style></defs><title>num</title><rect class="cls-1" x="-185" y="-335" width="657" height="483"/><path class="cls-2" d="M45,54l-7.63,1.37-1.3-5.47L53,44.58l1,1V94.77H45V64.09c0-4,0-7.27.14-10.08Z"/><path class="cls-2" d="M83.86,95.49c-10.94,0-19.08-9-19.08-25,0-16.56,8.93-26,20.09-26S104,54.16,104,69.78C104,86.78,94.59,95.49,83.86,95.49Zm.5-5.83c6.92,0,10.23-7.35,10.23-19.45s-3-19.87-10.23-19.87c-6.55,0-10.29,6.41-10.29,19.44C74.07,81.74,77.09,89.66,84.36,89.66Z"/></svg>