<svg id="Layer_1" data-name="Layer 1" xmlns="http://www.w3.org/2000/svg" viewBox="0 0 140 140"><defs><style>.cls-1{opacity:0.1;}.cls-2{fill:#fff;}</style></defs><title>num</title><rect class="cls-1" x="-505" y="-335" width="657" height="483"/><path class="cls-2" d="M31.12,88.07c9.57-7.56,22.25-19.44,22.25-28.65,0-4.68-3.1-8.21-8.71-8.21-4,0-8.57,1.87-12.61,4.46l-.93-7.2a36.88,36.88,0,0,1,15.62-4c9.44,0,15.92,5.33,15.92,13,0,10.51-12.46,22.61-23,30.1H51.35a86.69,86.69,0,0,0,11.52-.72l-.72,7.92H32.2Z"/><path class="cls-2" d="M88.79,95.49c-10.94,0-19.08-9-19.08-25,0-16.56,8.93-26,20.09-26,11.31,0,19.08,9.65,19.08,25.27C108.88,86.78,99.52,95.49,88.79,95.49Zm.51-5.83c6.91,0,10.22-7.35,10.22-19.44s-3-19.88-10.22-19.88c-6.56,0-10.3,6.41-10.3,19.44C79,81.74,82,89.66,89.3,89.66Z"/></svg>