<svg id="Layer_1" data-name="Layer 1" xmlns="http://www.w3.org/2000/svg" viewBox="0 0 140 140"><defs><style>.cls-1{opacity:0.1;}.cls-2{fill:#fff;}</style></defs><title>pronom</title><rect class="cls-1" x="-499" y="-332" width="657" height="483"/><path class="cls-2" d="M53,102.64v23.81A4.56,4.56,0,0,0,57.51,131l24.8-.07a4.57,4.57,0,0,0,4.56-4.56V102.64a4.56,4.56,0,0,0-4.56-4.55H57.51A4.51,4.51,0,0,0,53,102.64Z"/><path class="cls-2" d="M57.39,91.25a2.24,2.24,0,0,0,.86-.84,3.57,3.57,0,0,0,.34-.81,1.65,1.65,0,0,0,1.22.54,1.52,1.52,0,0,0,.55-.1,1.71,1.71,0,0,0,.75-.53,10.66,10.66,0,0,0,17.78,0,1.71,1.71,0,0,0,.75.53,1.52,1.52,0,0,0,.55.1,1.65,1.65,0,0,0,1.22-.54,3.57,3.57,0,0,0,.34.81,2.24,2.24,0,0,0,.86.84l7.26,5.12c.15.21.28.44.42.67a1,1,0,0,0,1,.51,1,1,0,0,0,.86-.66,7.79,7.79,0,0,0,.19-4.13c-2.23-7.11-5.19-8.21-5.19-8.21a3.87,3.87,0,0,0-3.62,0l-.22.13,0,0a1.66,1.66,0,0,0-2.67-1.79,10.65,10.65,0,0,0-21.24,0,1.65,1.65,0,0,0-1.65-.34,1.67,1.67,0,0,0-1,2.13l0,0-.22-.13a3.87,3.87,0,0,0-3.62,0c-2.75,1.3-5.19,8.21-5.19,8.21a7.79,7.79,0,0,0,.19,4.13,1,1,0,0,0,.86.66,1,1,0,0,0,1-.51l.42-.67Z"/><path class="cls-2" d="M25.23,49.64V73.45A4.57,4.57,0,0,0,29.78,78l24.8-.07a4.56,4.56,0,0,0,4.55-4.56V49.64a4.55,4.55,0,0,0-4.55-4.55H29.78a4.51,4.51,0,0,0-4.55,4.55Z"/><path class="cls-2" d="M29.66,38.25a2.24,2.24,0,0,0,.86-.84,4.09,4.09,0,0,0,.34-.81,1.65,1.65,0,0,0,1.22.54,1.52,1.52,0,0,0,.55-.1,1.77,1.77,0,0,0,.75-.53,10.66,10.66,0,0,0,17.78,0,1.71,1.71,0,0,0,.75.53,1.52,1.52,0,0,0,.55.1,1.68,1.68,0,0,0,1.22-.54,4.05,4.05,0,0,0,.33.81,2.31,2.31,0,0,0,.86.84l7.27,5.12c.14.21.28.44.41.67a1,1,0,0,0,1,.51,1,1,0,0,0,.86-.66,7.69,7.69,0,0,0,.2-4.13c-2.23-7.11-5.19-8.21-5.19-8.21a3.87,3.87,0,0,0-3.62.05l-.22.13,0-.05a1.66,1.66,0,0,0-2.67-1.79,10.65,10.65,0,0,0-21.24,0A1.65,1.65,0,0,0,29,31.68v.05l-.21-.13a3.87,3.87,0,0,0-3.62-.05C22.41,32.85,20,39.76,20,39.76a7.69,7.69,0,0,0,.19,4.13A1,1,0,0,0,22,44c.13-.23.27-.45.41-.67Z"/><path class="cls-2" d="M81.23,49.64V73.45A4.57,4.57,0,0,0,85.78,78l24.8-.07a4.56,4.56,0,0,0,4.55-4.56V49.64a4.55,4.55,0,0,0-4.55-4.55H85.78a4.51,4.51,0,0,0-4.55,4.55Z"/><path class="cls-2" d="M85.66,38.25a2.24,2.24,0,0,0,.86-.84,4.09,4.09,0,0,0,.34-.81,1.65,1.65,0,0,0,1.22.54,1.52,1.52,0,0,0,.55-.1,1.77,1.77,0,0,0,.75-.53,10.66,10.66,0,0,0,17.78,0,1.71,1.71,0,0,0,.75.53,1.52,1.52,0,0,0,.55.1,1.68,1.68,0,0,0,1.22-.54,4.05,4.05,0,0,0,.33.81,2.31,2.31,0,0,0,.86.84l7.27,5.12c.14.21.28.44.41.67a1,1,0,0,0,1,.51,1,1,0,0,0,.86-.66,7.69,7.69,0,0,0,.2-4.13c-2.23-7.11-5.19-8.21-5.19-8.21a3.87,3.87,0,0,0-3.62.05l-.22.13,0-.05a1.66,1.66,0,0,0-2.67-1.79,10.65,10.65,0,0,0-21.24,0A1.65,1.65,0,0,0,85,31.68v.05l-.21-.13a3.87,3.87,0,0,0-3.62-.05C78.41,32.85,76,39.76,76,39.76a7.69,7.69,0,0,0,.19,4.13A1,1,0,0,0,78,44c.13-.23.27-.45.41-.67Z"/></svg>