<svg id="Layer_1" data-name="Layer 1" xmlns="http://www.w3.org/2000/svg" viewBox="0 0 140 140"><defs><style>.cls-1{opacity:0.1;}.cls-2{fill:#fff;}</style></defs><title>pronom</title><rect class="cls-1" x="-339" y="-172" width="657" height="483"/><path class="cls-2" d="M43,74.74v38A7.29,7.29,0,0,0,50.21,120l39.58-.12a7.29,7.29,0,0,0,7.26-7.26V74.74a7.28,7.28,0,0,0-7.26-7.26H50.21A7.2,7.2,0,0,0,43,74.74Z"/><path class="cls-2" d="M69.74,61.73a16.76,16.76,0,0,0,9.14-30.82A16.9,16.9,0,0,1,82,29.26a1.59,1.59,0,0,0,.13-2.88,13.92,13.92,0,0,0-8.93-.82,17.23,17.23,0,0,1,2-3A1.59,1.59,0,0,0,74,20c-6.12.07-11.75,6.28-14,10a11.91,11.91,0,0,0-1,2A16.77,16.77,0,0,0,69.74,61.73Z"/></svg>