<svg id="Layer_1" data-name="Layer 1" xmlns="http://www.w3.org/2000/svg" viewBox="0 0 140 140"><defs><style>.cls-1{opacity:0.1;}.cls-2{fill:#fff;}</style></defs><title>pronom</title><rect class="cls-1" x="-19" y="-332" width="657" height="483"/><path class="cls-2" d="M31,70.58V96.72a5,5,0,0,0,5,5l27.21-.09a5,5,0,0,0,5-5v-26a5,5,0,0,0-5-5H36a5,5,0,0,0-5,5Z"/><path class="cls-2" d="M61.09,49.86A11.57,11.57,0,1,1,49.53,38.29,11.57,11.57,0,0,1,61.09,49.86Z"/><rect class="cls-2" x="12.5" y="56.93" width="32.05" height="8.9" rx="4.45" ry="4.45" transform="translate(75.96 13.11) rotate(69.42)"/><path class="cls-2" d="M72.63,70.58V96.72a5,5,0,0,0,5,5l27.21-.09a5,5,0,0,0,5-5v-26a5,5,0,0,0-5-5H77.62a5,5,0,0,0-5,5Z"/><rect class="cls-2" x="95.46" y="58.71" width="32.05" height="8.9" rx="4.45" ry="4.45" transform="translate(209.8 -19) rotate(110.58)"/><path class="cls-2" d="M102.75,49.86A11.57,11.57,0,1,1,91.19,38.29a11.57,11.57,0,0,1,11.56,11.57Z"/></svg>