<svg id="Layer_1" data-name="Layer 1" xmlns="http://www.w3.org/2000/svg" viewBox="0 0 140 140"><defs><style>.cls-1{opacity:0.1;}.cls-2{fill:#fff;}</style></defs><title>pronom</title><rect class="cls-1" x="-179" y="-332" width="657" height="483"/><path class="cls-2" d="M20,69V92.33a4.48,4.48,0,0,0,4.46,4.46l24.33-.07a4.48,4.48,0,0,0,4.47-4.46V69a4.48,4.48,0,0,0-4.47-4.47H24.46A4.43,4.43,0,0,0,20,69Z"/><path class="cls-2" d="M46.93,50.44A10.34,10.34,0,1,1,36.59,40.1,10.34,10.34,0,0,1,46.93,50.44Z"/><path class="cls-2" d="M83,54.5V66.16a2.24,2.24,0,0,0,2.23,2.22l12.14,0a2.24,2.24,0,0,0,2.23-2.23V54.5a2.25,2.25,0,0,0-2.23-2.23H85.26A2.22,2.22,0,0,0,83,54.5Z"/><path class="cls-2" d="M96.47,45.26a5.16,5.16,0,1,1-5.16-5.16,5.16,5.16,0,0,1,5.16,5.16Z"/><path class="cls-2" d="M103.41,68.51V80.17a2.23,2.23,0,0,0,2.22,2.22l12.14,0A2.24,2.24,0,0,0,120,80.13V68.51a2.23,2.23,0,0,0-2.23-2.23H105.63a2.2,2.2,0,0,0-2.22,2.23Z"/><path class="cls-2" d="M116.84,59.26a5.16,5.16,0,1,1-5.15-5.15,5.15,5.15,0,0,1,5.15,5.15Z"/><path class="cls-2" d="M83,86V97.68a2.24,2.24,0,0,0,2.23,2.22l12.14,0a2.24,2.24,0,0,0,2.23-2.22V86a2.24,2.24,0,0,0-2.23-2.23H85.26A2.21,2.21,0,0,0,83,86Z"/><path class="cls-2" d="M96.47,76.77a5.16,5.16,0,1,1-5.16-5.15,5.16,5.16,0,0,1,5.16,5.15Z"/><path class="cls-2" d="M70.93,87.46h-3.8a11.2,11.2,0,0,1-1.83-.15l-.63-.1A10.7,10.7,0,0,0,63,87.07H61.55a.42.42,0,0,1-.42-.43V78.32a.42.42,0,0,1,.42-.42h2.38a1.14,1.14,0,0,0,.71-.25l1.56-1.21a4.42,4.42,0,0,1,2.69-.92h2.57a1.61,1.61,0,0,1,1.61,1.58h5.45a1.64,1.64,0,0,1,1.68,1.53,1.56,1.56,0,0,1-.44,1.2,1.61,1.61,0,0,1-1.17.5H74.07a1.56,1.56,0,0,1,.19.85,1.59,1.59,0,0,1-1.1,1.43,1.65,1.65,0,0,1,.24,1A1.61,1.61,0,0,1,72.35,85a1.56,1.56,0,0,1,.26,1A1.65,1.65,0,0,1,70.93,87.46Zm-9-1.24h1a11.2,11.2,0,0,1,1.83.15l.63.1a10.61,10.61,0,0,0,1.69.14h3.8a.81.81,0,0,0,.83-.72.77.77,0,0,0-.21-.56.74.74,0,0,0-.55-.24.43.43,0,0,1-.43-.43.43.43,0,0,1,.43-.43h.72a.8.8,0,0,0,.83-.72.73.73,0,0,0-.21-.56.72.72,0,0,0-.55-.24.43.43,0,1,1,0-.85h.79a.81.81,0,0,0,.83-.72.74.74,0,0,0-.21-.57.76.76,0,0,0-.55-.24.43.43,0,1,1,0-.85h5.94a.72.72,0,0,0,.55-.24.73.73,0,0,0,.21-.56.8.8,0,0,0-.83-.72H72.65a.43.43,0,0,1-.43-.43v-.4a.76.76,0,0,0-.76-.76H68.89a3.57,3.57,0,0,0-2.17.75l-1.55,1.2a2,2,0,0,1-1.24.43H62Z"/><path class="cls-2" d="M61.14,87.47h-4a.84.84,0,0,1-.82-.83l0-8.32a.79.79,0,0,1,.25-.58.78.78,0,0,1,.58-.24l4,0a.82.82,0,0,1,.82.82l0,8.32a.87.87,0,0,1-.24.59A.83.83,0,0,1,61.14,87.47Zm0-.85Zm-3.93,0,3.9,0,0-8.26-3.9,0Z"/><path class="cls-2" d="M59.18,84.67a.39.39,0,0,1,.39.39.4.4,0,0,1-.39.39.39.39,0,0,1-.39-.39.38.38,0,0,1,.39-.39m0-.41a.8.8,0,1,0,.79.8.79.79,0,0,0-.79-.8Z"/></svg>