<svg id="Layer_1" data-name="Layer 1" xmlns="http://www.w3.org/2000/svg" viewBox="0 0 140 140"><defs><style>.cls-1{opacity:0.1;}.cls-2{fill:#fff;}</style></defs><title>pronom</title><rect class="cls-1" x="-339" y="-332" width="657" height="483"/><path class="cls-2" d="M56,48.44V71.66a4.45,4.45,0,0,0,4.44,4.43L84.56,76A4.46,4.46,0,0,0,89,71.58V48.44A4.46,4.46,0,0,0,84.56,44H60.39A4.4,4.4,0,0,0,56,48.44Z"/><path class="cls-2" d="M72.32,40.49A10.24,10.24,0,0,0,77.9,21.67a11.14,11.14,0,0,1,1.92-1,1,1,0,0,0,.61-.85,1,1,0,0,0-.52-.9,8.46,8.46,0,0,0-5.46-.5,10.36,10.36,0,0,1,1.23-1.81A1,1,0,0,0,74.92,15c-3.74,0-7.18,3.84-8.54,6.11a6.19,6.19,0,0,0-.59,1.25,10.24,10.24,0,0,0,6.53,18.13Z"/><path class="cls-2" d="M25.45,83.94v23.22a4.45,4.45,0,0,0,4.44,4.43l24.17-.07a4.46,4.46,0,0,0,4.44-4.44V83.94a4.46,4.46,0,0,0-4.44-4.44H29.89a4.4,4.4,0,0,0-4.44,4.44Z"/><path class="cls-2" d="M41.82,76A10.24,10.24,0,0,0,47.4,57.17a11.14,11.14,0,0,1,1.92-1,1,1,0,0,0,.61-.85,1,1,0,0,0-.52-.9A8.46,8.46,0,0,0,44,53.9a10.36,10.36,0,0,1,1.23-1.81,1,1,0,0,0-.76-1.59c-3.74,0-7.18,3.84-8.54,6.11a6.19,6.19,0,0,0-.59,1.25A10.24,10.24,0,0,0,41.82,76Z"/><path class="cls-2" d="M86.45,83.94v23.22a4.45,4.45,0,0,0,4.44,4.43l24.17-.07a4.46,4.46,0,0,0,4.44-4.44V83.94a4.46,4.46,0,0,0-4.44-4.44H90.89a4.4,4.4,0,0,0-4.44,4.44Z"/><path class="cls-2" d="M102.82,76a10.24,10.24,0,0,0,5.58-18.82,11.14,11.14,0,0,1,1.92-1,1,1,0,0,0,.61-.85,1,1,0,0,0-.52-.9,8.46,8.46,0,0,0-5.46-.5,10.36,10.36,0,0,1,1.23-1.81,1,1,0,0,0-.76-1.59c-3.74,0-7.18,3.84-8.54,6.11a6.19,6.19,0,0,0-.59,1.25A10.24,10.24,0,0,0,102.82,76Z"/></svg>