<svg id="Layer_1" data-name="Layer 1" xmlns="http://www.w3.org/2000/svg" viewBox="0 0 140 140"><defs><style>.cls-1{opacity:0.1;}.cls-2{fill:#fff;}</style></defs><title>pronom</title><rect class="cls-1" x="-499" y="-172" width="657" height="483"/><path class="cls-2" d="M40.63,71.1v41.06A7.87,7.87,0,0,0,48.47,120l42.76-.13A7.87,7.87,0,0,0,99.08,112V71.1a7.87,7.87,0,0,0-7.85-7.85H48.47a7.79,7.79,0,0,0-7.84,7.85Z"/><path class="cls-2" d="M48.26,51.47A4,4,0,0,0,49.75,50a7.58,7.58,0,0,0,.58-1.39,2.84,2.84,0,0,0,4.34-.17,18.37,18.37,0,0,0,30.66,0,2.85,2.85,0,0,0,4.34.17A7.58,7.58,0,0,0,90.25,50a4,4,0,0,0,1.49,1.45l12.52,8.83c.25.36.48.75.72,1.16a1.74,1.74,0,0,0,3.14-.27,13.39,13.39,0,0,0,.33-7.12c-3.85-12.26-9-14.16-9-14.16a6.72,6.72,0,0,0-6.24.09,2.77,2.77,0,0,0-.37.22l0-.08a2.88,2.88,0,0,0-1.76-3.67,2.85,2.85,0,0,0-2.85.57,18.36,18.36,0,0,0-36.62,0,2.86,2.86,0,0,0-4.6,3.1l0,.08a3.48,3.48,0,0,0-.36-.22,6.74,6.74,0,0,0-6.25-.09c-4.74,2.24-8.94,14.16-8.94,14.16a13.33,13.33,0,0,0,.32,7.13,1.77,1.77,0,0,0,1.49,1.13A1.74,1.74,0,0,0,35,61.46c.23-.41.47-.79.71-1.16Z"/></svg>