<svg id="Layer_1" data-name="Layer 1" xmlns="http://www.w3.org/2000/svg" viewBox="0 0 140 140"><defs><style>.cls-1{opacity:0.1;}.cls-2{fill:#fff;}</style></defs><title>n1</title><rect class="cls-1" x="-169" y="-18" width="657" height="483"/><path class="cls-2" d="M45.72,29.88A9.88,9.88,0,1,1,35.84,20a9.88,9.88,0,0,1,9.88,9.88Z"/><path class="cls-2" d="M24.82,74.37h1V94a4.91,4.91,0,0,0,4.89,4.9H41a4.92,4.92,0,0,0,4.9-4.9V92.82a12.4,12.4,0,0,1-1.47-5.72V61.47a12.21,12.21,0,0,1,7.34-11.18v-2a4.91,4.91,0,0,0-4.89-4.9h-22a4.91,4.91,0,0,0-4.9,4.9V69.47a4.86,4.86,0,0,0,4.9,4.9Z"/><path class="cls-2" d="M114.12,29.88A9.88,9.88,0,1,1,104.25,20a9.87,9.87,0,0,1,9.87,9.88Z"/><path class="cls-2" d="M88.25,48.24v2a12.21,12.21,0,0,1,7.34,11.18V86.94a11.43,11.43,0,0,1-1.47,5.71V93.8A4.91,4.91,0,0,0,99,98.69h10.29a4.9,4.9,0,0,0,4.89-4.89V74.21h1a4.91,4.91,0,0,0,4.9-4.9V48.24a4.91,4.91,0,0,0-4.9-4.89h-22a4.9,4.9,0,0,0-4.89,4.89Z"/><path class="cls-2" d="M51.84,61.47V87.1A4.91,4.91,0,0,0,56.73,92h1.88v23.1a4.91,4.91,0,0,0,4.9,4.9H76.66a4.91,4.91,0,0,0,4.89-4.9V91.92h1.88a4.92,4.92,0,0,0,4.9-4.9V61.47a4.92,4.92,0,0,0-4.9-4.9H56.73a4.86,4.86,0,0,0-4.89,4.9Z"/><path class="cls-2" d="M81.39,41.14A11.35,11.35,0,1,1,70,29.8,11.35,11.35,0,0,1,81.39,41.14Z"/></svg>