<svg id="Layer_1" data-name="Layer 1" xmlns="http://www.w3.org/2000/svg" viewBox="0 0 140 140"><defs><style>.cls-1{opacity:0.1;}.cls-2{fill:#fff;}</style></defs><title>pronom</title><rect class="cls-1" x="-19" y="-172" width="657" height="483"/><path class="cls-2" d="M49.32,70.92v41.21A7.9,7.9,0,0,0,57.19,120l42.91-.13A7.89,7.89,0,0,0,108,112V70.92A7.9,7.9,0,0,0,100.1,63H57.19a7.82,7.82,0,0,0-7.87,7.88Z"/><path class="cls-2" d="M96.82,38.24A18.24,18.24,0,1,1,78.58,20,18.23,18.23,0,0,1,96.82,38.24Z"/><rect class="cls-2" x="20.19" y="49.4" width="50.54" height="14.04" rx="7.02" ry="7.02" transform="matrix(0.35, 0.94, -0.94, 0.35, 82.29, -5.97)"/></svg>