<svg id="Layer_1" data-name="Layer 1" xmlns="http://www.w3.org/2000/svg" viewBox="0 0 140 140"><defs><style>.cls-1{opacity:0.1;}.cls-2{fill:#fff;}</style></defs><title>pronom</title><rect class="cls-1" x="-179" y="-172" width="657" height="483"/><path class="cls-2" d="M20,70.54V94.81a4.65,4.65,0,0,0,4.63,4.63l25.27-.08a4.65,4.65,0,0,0,4.64-4.63V70.54A4.66,4.66,0,0,0,49.9,65.9H24.63A4.6,4.6,0,0,0,20,70.54Z"/><path class="cls-2" d="M48,51.3A10.74,10.74,0,1,1,37.23,40.56,10.74,10.74,0,0,1,48,51.3Z"/><path class="cls-2" d="M85.46,70.54V94.81a4.65,4.65,0,0,0,4.63,4.63l25.27-.08A4.65,4.65,0,0,0,120,94.73V70.54a4.66,4.66,0,0,0-4.64-4.64H90.09a4.6,4.6,0,0,0-4.63,4.64Z"/><path class="cls-2" d="M113.43,51.3a10.74,10.74,0,1,1-10.74-10.74A10.74,10.74,0,0,1,113.43,51.3Z"/><path class="cls-2" d="M72.89,89.75h-4a11.08,11.08,0,0,1-1.9-.16l-.65-.11a11.5,11.5,0,0,0-1.76-.14H63.16a.45.45,0,0,1-.45-.44V80.26a.45.45,0,0,1,.45-.45h2.46a1.22,1.22,0,0,0,.74-.25L68,78.3a4.62,4.62,0,0,1,2.79-1h2.67A1.68,1.68,0,0,1,75.12,79h5.66a1.71,1.71,0,0,1,1.74,1.59,1.62,1.62,0,0,1-.45,1.24,1.7,1.7,0,0,1-1.22.52H76.16a1.68,1.68,0,0,1,.19.89,1.65,1.65,0,0,1-1.15,1.48,1.61,1.61,0,0,1,.26,1,1.7,1.7,0,0,1-1.09,1.47,1.75,1.75,0,0,1,.27,1A1.72,1.72,0,0,1,72.89,89.75Zm-9.29-1.3h1a12,12,0,0,1,1.9.16l.66.11a10.34,10.34,0,0,0,1.75.15h4a.84.84,0,0,0,.86-.75.8.8,0,0,0-.21-.59.81.81,0,0,0-.58-.25.44.44,0,0,1,0-.88h.75a.84.84,0,0,0,.86-.75.76.76,0,0,0-.21-.59.79.79,0,0,0-.58-.25.44.44,0,0,1-.44-.44.44.44,0,0,1,.44-.44h.83a.84.84,0,0,0,.86-.75.81.81,0,0,0-.22-.59.77.77,0,0,0-.57-.25.44.44,0,0,1-.45-.44.45.45,0,0,1,.45-.44h6.17a.77.77,0,0,0,.57-.25.81.81,0,0,0,.22-.59.84.84,0,0,0-.86-.74h-6.1a.45.45,0,0,1-.45-.45V79a.79.79,0,0,0-.79-.79H70.77a3.67,3.67,0,0,0-2.25.77l-1.61,1.26a2.14,2.14,0,0,1-1.29.44h-2Z"/><path class="cls-2" d="M62.72,89.76h0l-4.11,0a.85.85,0,0,1-.85-.86l0-8.64a.89.89,0,0,1,.26-.6.86.86,0,0,1,.6-.25l4.12,0a.86.86,0,0,1,.85.86l0,8.64a.84.84,0,0,1-.25.6A.88.88,0,0,1,62.72,89.76Zm0-.89Zm-4.08,0h4l0-8.57-4,0Z"/><path class="cls-2" d="M60.69,86.85a.4.4,0,1,1-.41.4.4.4,0,0,1,.41-.4m0-.42a.82.82,0,1,0,0,1.64.82.82,0,1,0,0-1.64Z"/></svg>