<svg id="Layer_1" data-name="Layer 1" xmlns="http://www.w3.org/2000/svg" viewBox="0 0 140 140"><defs><style>.cls-1{opacity:0.1;}.cls-2{fill:#fff;}</style></defs><title>vc</title><rect class="cls-1" x="-19" y="-70" width="657" height="483"/><path class="cls-2" d="M109.78,28.48H64.6a2.72,2.72,0,0,0-2.72,2.72V50.39l2-2.3a6.29,6.29,0,0,1,3.48-2V33.92h39.74V69.45H67.32v-6l-1.23,1.43a6.3,6.3,0,0,1-4.21,2.18v5.06a2.72,2.72,0,0,0,2.72,2.72H79.27l-7.45,33.84A2.81,2.81,0,1,0,77.31,110L85,74.89h4.49L97.24,110a2.81,2.81,0,0,0,2.75,2.2,3.23,3.23,0,0,0,.61-.06,2.83,2.83,0,0,0,2.14-3.36L95.28,74.89h14.5a2.72,2.72,0,0,0,2.72-2.72v-41a2.72,2.72,0,0,0-2.72-2.72Zm0,0"/><path class="cls-2" d="M88.18,44.37a1,1,0,0,0-1.36-.59l-16,5.65a3.53,3.53,0,0,0-4.82.49L60.9,55.86,56.39,52c0,.32.1.63.1,1v8.39L59,63.49a3.53,3.53,0,0,0,5-.38L70,56l4.88-2.86,12.84-7.51a1,1,0,0,0,.45-1.29Z"/><path class="cls-2" d="M46.59,45.87h-3a7,7,0,0,0-5.63,2.84l-9.27,8.53a3.52,3.52,0,0,0-.27,5L36,70.64A3.51,3.51,0,1,0,41.19,66L36,60.13l7.4-6.62-4.31,5.86,4.22,4.71a6.3,6.3,0,0,1-6.8,10.16s0,16.27,0,33.69a4.22,4.22,0,0,0,8.44,0V82.79h2.81v25.14a7,7,0,0,1-.88,3.34,4.14,4.14,0,0,0,2.55.88,4.22,4.22,0,0,0,4.22-4.22V53a7.07,7.07,0,0,0-7.08-7.08Z"/><path class="cls-2" d="M41.32,43.34a7.92,7.92,0,0,0,7.52,0,8.22,8.22,0,1,0-7.52,0Z"/></svg>