<svg id="Layer_1" data-name="Layer 1" xmlns="http://www.w3.org/2000/svg" viewBox="0 0 140 140"><defs><style>.cls-1{opacity:0.1;}.cls-2{fill:#fff;}</style></defs><title>vc</title><rect class="cls-1" x="-179" y="-70" width="657" height="483"/><path class="cls-2" d="M71.49,92.08V48.74a1.45,1.45,0,0,0-2.9,0V92.08a1.45,1.45,0,1,0,2.9,0Z"/><path class="cls-2" d="M113.55,38.39c-3.07,0-6.89-1.33-10.94-2.73-5.13-1.78-10.94-3.79-17-3.79A17.37,17.37,0,0,0,70,40.26a17.26,17.26,0,0,0-2.07-2.77,17.69,17.69,0,0,0-13.57-5.62c-6,0-11.84,2-17,3.79-4,1.4-7.87,2.73-10.94,2.73A1.45,1.45,0,0,0,25,39.84V98.31a1.45,1.45,0,0,0,1.45,1.45c3.56,0,7.61-1.4,11.89-2.89,4.91-1.7,10.48-3.63,16-3.63a14.81,14.81,0,0,1,11.43,4.68,1.45,1.45,0,0,0,2.14-2,17.71,17.71,0,0,0-13.57-5.62c-6,0-11.84,2-17,3.79a48.44,48.44,0,0,1-9.49,2.64V41.22A48.12,48.12,0,0,0,38.34,38.4c4.91-1.7,10.48-3.62,16-3.62,11.2,0,14.13,8.89,14.25,9.27a1.46,1.46,0,0,0,2.78,0c0-.1,3-9.27,14.25-9.27,5.54,0,11.11,1.92,16,3.62a48.12,48.12,0,0,0,10.44,2.82V96.77a48.44,48.44,0,0,1-9.49-2.64c-5.13-1.78-10.94-3.79-17-3.79A17.69,17.69,0,0,0,72.07,96a1.45,1.45,0,1,0,2.14,2,14.81,14.81,0,0,1,11.43-4.68c5.54,0,11.11,1.93,16,3.63,4.28,1.49,8.33,2.89,11.89,2.89A1.45,1.45,0,0,0,115,98.31V39.84a1.45,1.45,0,0,0-1.45-1.45Z"/><path class="cls-2" d="M113.55,105.22c-3.07,0-6.89-1.32-10.94-2.72-5.13-1.78-10.94-3.79-17-3.79a17.79,17.79,0,0,0-13.12,5.15h-5a17.79,17.79,0,0,0-13.12-5.15c-6,0-11.84,2-17,3.79-4,1.4-7.87,2.72-10.94,2.72a1.46,1.46,0,0,0,0,2.91c3.56,0,7.61-1.4,11.89-2.89,4.91-1.7,10.48-3.63,16-3.63a14.81,14.81,0,0,1,11.43,4.68,1.44,1.44,0,0,0,1.07.47h6.28a1.44,1.44,0,0,0,1.07-.47,14.81,14.81,0,0,1,11.43-4.68c5.54,0,11.11,1.93,16,3.63,4.28,1.49,8.33,2.89,11.89,2.89a1.46,1.46,0,0,0,0-2.91Z"/></svg>