<svg id="Layer_1" data-name="Layer 1" xmlns="http://www.w3.org/2000/svg" viewBox="0 0 140 140"><defs><style>.cls-1{opacity:0.1;}.cls-2{fill:#fff;}</style></defs><title>vc</title><rect class="cls-1" x="-339" y="-70" width="657" height="483"/><path class="cls-2" d="M86.53,56.33a9.21,9.21,0,0,0-9.2-8.74H62.68a9.21,9.21,0,0,0-9.2,8.74l-1.3,26a2.73,2.73,0,0,0,.75,2,2.67,2.67,0,0,0,2,.84h0L85.13,85a2.7,2.7,0,0,0,2.69-2.83Zm-6.41,8.51H59.88a2.41,2.41,0,0,1,0-4.82H80.12a2.41,2.41,0,1,1,0,4.82Z"/><path class="cls-2" d="M102.84,87.06c14.57-29.36,11.39-52.13.52-59.6C96.83,23,88.68,24.71,82,32H79.85v-.22A5.76,5.76,0,0,0,74.09,26H65.91a5.76,5.76,0,0,0-5.76,5.77V32H58c-6.67-7.26-14.82-9-21.35-4.51-10.87,7.47-14,30.24.52,59.59l-.5,9.87A17.21,17.21,0,0,0,53.86,115H86.42a17.25,17.25,0,0,0,16.94-17.22c0-.41,0-.82,0-1.22ZM39.1,48.33,37.87,72.77c-3.55-10-4.35-17.63-4.26-22.82.15-8.1,2.61-14.57,6.59-17.3,2.89-2,6.29-1.76,9.71.54A17.21,17.21,0,0,0,39.1,48.33Zm47.07,56.56H83.49a10.48,10.48,0,0,0-10.34-8.76H66.86a10.49,10.49,0,0,0-10.35,8.76H53.86a7.11,7.11,0,0,1-7.1-7.46l2.43-48.59a7.11,7.11,0,0,1,7.1-6.76H83.7a7.11,7.11,0,0,1,7.11,6.75l2.41,48.29v.13c0,.17,0,.35,0,.53A7.12,7.12,0,0,1,86.17,104.89ZM100.9,48.33A17.22,17.22,0,0,0,90.09,33.19c3.42-2.3,6.82-2.53,9.71-.54,4,2.73,6.44,9.2,6.59,17.3.09,5.19-.71,12.87-4.27,22.83Z"/></svg>