<svg id="Layer_1" data-name="Layer 1" xmlns="http://www.w3.org/2000/svg" viewBox="0 0 140 140"><defs><style>.cls-1{opacity:0.1;}.cls-2{fill:#fff;}</style></defs><title>vc</title><rect class="cls-1" x="-499" y="-70" width="657" height="483"/><path class="cls-2" d="M89.56,48.21l2.35-2.94a9.31,9.31,0,0,0-1.46-13.1L90.3,32A9.32,9.32,0,0,0,77.2,33.5l-2.34,2.94Z"/><path class="cls-2" d="M75.27,72.92a2.81,2.81,0,0,0,5,1.45L96.38,54.19a2.8,2.8,0,0,0-.49-4,2.86,2.86,0,0,0-3.93.53l-1.57,2-2.7-2.16h0L73,38.75l-37.6,47L50.1,97.54,84.21,54.92l2.69,2.16-11,13.78a2.85,2.85,0,0,0-.6,2.06Z"/><path class="cls-2" d="M47.66,99.71,33.8,88.61c-.22.78-.34,1.46-.34,1.46l-3.17,15.2a1.36,1.36,0,0,0,1.9,1.52l14.15-6.44s.61-.26,1.32-.64Z"/><path class="cls-2" d="M107.72,102.43a2.07,2.07,0,0,0-.35,0L86,105.22a1.31,1.31,0,0,1-1.27-2c.32-.49.63-1,1-1.5a2.11,2.11,0,0,0-1.81-3.12l-.33,0-28,4.21-3.35.51-9.13,1.37a1.92,1.92,0,0,0-1.65,2.09,2.12,2.12,0,0,0,.53,1.24,1.89,1.89,0,0,0,1.4.61l.32,0,33.38-5a1.3,1.3,0,0,1,1.25,2l-.65.9a2.39,2.39,0,0,0,.23,2.88,1.77,1.77,0,0,0,1.29.56h.18l28.82-3.67h0a1.74,1.74,0,0,0,1.21-.81,2,2,0,0,0,.29-1.62,1.94,1.94,0,0,0-2-1.46Z"/></svg>