<svg id="Layer_1" data-name="Layer 1" xmlns="http://www.w3.org/2000/svg" viewBox="0 0 140 140"><defs><style>.cls-1{opacity:0.1;}.cls-2{fill:#fff;}</style></defs><title>vc</title><rect class="cls-1" x="-19" y="-230" width="657" height="483"/><path class="cls-2" d="M105.69,34.31a14.69,14.69,0,0,0-20.78,0L40.74,78.23a2.54,2.54,0,0,0-.6.91l-10,27.5A2.5,2.5,0,0,0,32.5,110a2.58,2.58,0,0,0,.73-.11l24.87-7.63a2.59,2.59,0,0,0,1-.62l46.56-46.56a14.67,14.67,0,0,0,0-20.77ZM55.23,97.9l-9.31,2.87a10.58,10.58,0,0,0-2.54-4.16A13.73,13.73,0,0,0,40,94.2l4.24-11.7H50v5a2.5,2.5,0,0,0,2.5,2.5h4.42ZM92,61.68,61.57,92.13,62.44,88A2.5,2.5,0,0,0,60,85H55V80a2.51,2.51,0,0,0-2.51-2.51H48.56L78.29,47.93l0,0A9.69,9.69,0,1,1,92,61.68Zm10.13-10.13-2.33,2.34A14.64,14.64,0,0,0,86.1,40.17l2.34-2.32h0a9.69,9.69,0,1,1,13.71,13.71Z"/><path class="cls-2" d="M85.73,50.73l-25,25A2.51,2.51,0,0,0,62.49,80a2.47,2.47,0,0,0,1.77-.74l25-25a2.5,2.5,0,0,0-3.53-3.54Z"/></svg>