<svg id="Layer_1" data-name="Layer 1" xmlns="http://www.w3.org/2000/svg" viewBox="0 0 140 140"><defs><style>.cls-1{opacity:0.1;}.cls-2{fill:#fff;}</style></defs><title>vc</title><rect class="cls-1" x="-179" y="-230" width="657" height="483"/><path class="cls-2" d="M105.77,89.75c0,4.93-3.49,10.29-7.81,10.29s-7.82-5.36-7.82-10.29,3.51-7.53,7.82-7.53,7.81,2.61,7.81,7.53Z"/><path class="cls-2" d="M34.25,89.75c0,4.93,3.49,10.29,7.81,10.29s7.8-5.36,7.8-10.29-3.49-7.53-7.8-7.53-7.81,2.61-7.81,7.53Z"/><path class="cls-2" d="M62.19,89.75c0,4.93,3.5,10.29,7.82,10.29s7.8-5.36,7.8-10.29-3.49-7.53-7.8-7.53-7.82,2.61-7.82,7.53Z"/><path class="cls-2" d="M109.93,103.4a3.4,3.4,0,0,0-2.44-1H88.42A3.44,3.44,0,0,0,85,105.81V115h25.83l.11-9.15a3.41,3.41,0,0,0-1-2.45Z"/><path class="cls-2" d="M51.59,102.38H32.51a3.44,3.44,0,0,0-3.43,3.43V115H54.91l.11-9.15a3.43,3.43,0,0,0-3.43-3.47Z"/><path class="cls-2" d="M79.54,102.38H60.47A3.44,3.44,0,0,0,57,105.81V115H82.86l.11-9.15a3.43,3.43,0,0,0-3.43-3.47Z"/><path class="cls-2" d="M99.24,25H40.76A8.74,8.74,0,0,0,32,33.74V68.18a8.74,8.74,0,0,0,8.74,8.74H46V70.16a2.63,2.63,0,0,1-.91.16,2.69,2.69,0,0,1-2.69-2.7V50a2.7,2.7,0,0,1,2.69-2.7h5.86l1,1.36L50.06,59.28l2.54,2.39,2.54-2.39L53.27,48.65l1-1.36h5.85a2.68,2.68,0,0,1,2.17,1.1L67.17,55l3.91-2.34a2.71,2.71,0,1,1,2.8,4.65l-6,3.61a2.71,2.71,0,0,1-3.58-.72l-5-6.84V76.92h40A8.74,8.74,0,0,0,108,68.18V33.74A8.74,8.74,0,0,0,99.24,25ZM52.6,45.45c-3.41,0-6.17-4.24-6.17-8.13s2.76-5.95,6.17-5.95,6.16,2.07,6.16,5.95S56,45.45,52.6,45.45Z"/></svg>