<svg id="Layer_1" data-name="Layer 1" xmlns="http://www.w3.org/2000/svg" viewBox="0 0 140 140"><defs><style>.cls-1{opacity:0.1;}.cls-2{fill:#fff;}</style></defs><title>vc</title><rect class="cls-1" x="-339" y="-230" width="657" height="483"/><path class="cls-2" d="M92.14,26.21a9.21,9.21,0,1,1-9.2,9.2,9.19,9.19,0,0,1,9.2-9.2Z"/><path class="cls-2" d="M36.89,65.66h2.46V64.48H36.89a1.82,1.82,0,0,1-1.34-.36.54.54,0,0,1-.07-.41l0-7.16H34.32v6.9a1.74,1.74,0,0,0,.28,1.36,2.7,2.7,0,0,0,2.29.85Z"/><path class="cls-2" d="M114.84,82.48l-.34-2.71c-1.31-10.6-1.37-11-.86-29.68a1.18,1.18,0,0,0-1.15-1.22A1.19,1.19,0,0,0,111.27,50c-.51,18.86-.46,19.27.88,30l.34,2.71c.34,2.61,0,4.41-.84,5.1-1,.8-2.84.1-3,0C100,85.24,89.1,90.78,88.65,91a1.19,1.19,0,0,0,.54,2.24,1.16,1.16,0,0,0,.54-.13,38.19,38.19,0,0,1,10.43-3.32v18.44H95.23a1.82,1.82,0,1,0,0,3.63h14a1.82,1.82,0,1,0,0-3.63h-4.54V89.58a13.93,13.93,0,0,1,3.21.56c.12.06,3.06,1.26,5.2-.38,1.63-1.25,2.23-3.7,1.75-7.28Z"/><path class="cls-2" d="M109.2,77.1c-.2-7.79-2.75-15.27-3-23-.3-11.31-17.63-11.57-17.76-.54a93.11,93.11,0,0,1-20,1.42c-6.12-.29-6.14,9.18-.06,9.47a100.63,100.63,0,0,0,21.08-1.49,119.9,119.9,0,0,1,1.83,12.48c-14.43,5-22.42,17.25-24.47,32.77,0,.11,0,.22,0,.33V74.15h9.09V66H43.31a3.22,3.22,0,0,0,0-.37c0-.1,0-.19,0-.3,0-.69.16-.93.83-1a2.83,2.83,0,0,1,.6,0v.57h8.76a3.91,3.91,0,0,0,.75.08,1,1,0,0,0,.87-.33.88.88,0,0,0,.09-.49.78.78,0,0,1,.08-.45.93.93,0,0,1,.55-.27,2.43,2.43,0,0,0-.3,1.12h9.92c0-1.91-2.22-3.45-5-3.45a6.72,6.72,0,0,0-2.34.42c.16,1.64-1.37,1.48-2,1.36l-.19.27s0,0-.08,0a1.23,1.23,0,0,0-.84.4.89.89,0,0,0-.15.63.66.66,0,0,1,0,.31.71.71,0,0,1-.55.2V63.24h-9.6V64a3.82,3.82,0,0,0-.65,0c-.86.17-1,.55-1.07,1.32a2.51,2.51,0,0,1,0,.3A1.39,1.39,0,0,1,43,66H25v8.12H30v39.39H66.84V109.6c.61,6.07,11,5.51,11.88-1.44,1.58-12,8.57-20,20.35-22.67,4.89.75,10.3-2,10.13-8.39Z"/><rect class="cls-2" x="35.18" y="39.4" width="3.95" height="21.32" transform="translate(-3.42 2.73) rotate(-4.02)"/></svg>