<svg id="Layer_1" data-name="Layer 1" xmlns="http://www.w3.org/2000/svg" viewBox="0 0 140 140"><defs><style>.cls-1{opacity:0.1;}.cls-2{fill:#fff;}</style></defs><title>VoG</title><rect class="cls-1" x="-19" y="-332" width="657" height="483"/><path class="cls-2" d="M112.32,67.93h-8.73a32.47,32.47,0,0,0-11-16.38,32.37,32.37,0,0,0-35.51-3.1l-6.28,3.4V50.19a5.55,5.55,0,0,0-11.1,0v7.68L35,60.43v-6a2.36,2.36,0,0,1,1.44-2.17,1.6,1.6,0,0,0,.85-2.09,1.58,1.58,0,0,0-2.09-.85,5.54,5.54,0,0,0-3.39,5.11v7.71L21.2,67.92l-.36.2,0,0a1.59,1.59,0,0,0,.8,3h90.72a4.49,4.49,0,1,1,0,9H54.11a7.68,7.68,0,1,0,0,15.35H85.89a1.6,1.6,0,1,0,0-3.19H54.11a4.49,4.49,0,1,1,0-9h58.21a7.68,7.68,0,1,0,0-15.36Zm-39.74,0a6.93,6.93,0,0,1,6.73-5.32h7a1.6,1.6,0,0,0,0-3.19h-7a10.12,10.12,0,0,0-10,8.51H27.87l6.29-3.41h0l7.9-4.28a1.6,1.6,0,0,0,.84-1.41V50.19a2.36,2.36,0,0,1,4.72,0v4.35A1.59,1.59,0,0,0,50,55.94l8.64-4.69a29.18,29.18,0,0,1,41.64,16.68Z"/><path class="cls-2" d="M66.22,59.4a1.6,1.6,0,1,1-1.59-1.6,1.59,1.59,0,0,1,1.59,1.6Z"/><path class="cls-2" d="M72.39,54.1a1.6,1.6,0,1,1-1.59-1.59,1.59,1.59,0,0,1,1.59,1.59Z"/></svg>