<svg id="Layer_1" data-name="Layer 1" xmlns="http://www.w3.org/2000/svg" viewBox="0 0 140 140"><defs><style>.cls-1{opacity:0.1;}.cls-2{fill:#fff;}</style></defs><title>VoG</title><rect class="cls-1" x="-19" y="-172" width="657" height="483"/><path class="cls-2" d="M117.9,48.5a6.48,6.48,0,0,0-3.75-2.42,8.6,8.6,0,0,0-5.15.86l-.08,0a6.4,6.4,0,0,0-1.64-.19,10.17,10.17,0,0,0-4.53,1.26,13.82,13.82,0,0,0-6.07,7,19.47,19.47,0,0,0-.9,10.74,9,9,0,0,0,2.08,4.62,13,13,0,0,0,3.8,2.53c.69.34,1.39.68,2.06,1.07a6.38,6.38,0,0,1,1.86,1.39,1.87,1.87,0,0,1,.48,1.14,2.18,2.18,0,0,1-1.7,1h-.07a6.16,6.16,0,0,0-.65-.87,1.93,1.93,0,0,0-.89-.61A6.15,6.15,0,0,0,99.4,76a2.17,2.17,0,0,1-.57.06c-1,0-2.06-.08-3.09-.1-.52,0-1,0-1.54,0-1.86,0-3.71-.1-5.57-.11-.91,0-1.82.06-2.73.12a3.55,3.55,0,0,0-.73.26,1.87,1.87,0,0,1-.41.09c-.14,0-.28,0-.42-.06-1.67,0-3.34-.1-5-.13l3.61-.05c-1.86,0-3.73,0-5.59,0H74.21a2.37,2.37,0,0,1-.92-.38c-.76-.51-1.52-1-2.29-1.53-1.33-.87-2.7-1.69-4-2.59a23.54,23.54,0,0,1-3.52-2.86c-.36-.36-.74-.7-1.14-1a26.64,26.64,0,0,1-3.87-3.86C57.73,62.9,57,62,56.23,61a6.94,6.94,0,0,0-1.85-1.73h-.79a3.08,3.08,0,0,0-.63.5c-.19.24-.35.25-.56.07a1.82,1.82,0,0,0-1.28-.32.47.47,0,0,0-.31.16,6.46,6.46,0,0,0-.75,1.22L50,61a7.31,7.31,0,0,0-1.84-1.71h-.8a2.77,2.77,0,0,0-.62.5c-.2.24-.36.25-.57.07a1.8,1.8,0,0,0-1.27-.32.45.45,0,0,0-.31.16,6,6,0,0,0-.75,1.22c-.51,1.32-.95,2.66-1.42,4s-1,2.77-1.45,4.15c-.15.43-.14.43-.56.33,0,0,0,0-.15,0,.12.22.22.42.33.64l-.08,0-.51.16.36.43c-.13.3-.29.65-.43,1s-.2.43-.5.21c-.05,0-.14,0-.22,0a.86.86,0,0,0,0,.23c.07.12.17.22.26.35a2.64,2.64,0,0,0-.3.18c-.12.1-.23.21-.34.32l.4.21c-.17.45-.38.93-.55,1.41-.08.24-.19.34-.45.25a1.39,1.39,0,0,0-.41,0,.79.79,0,0,1,0,.09l.41.43-.64.27s0,.07,0,.1a2,2,0,0,1,.4.1c.07,0,.18.11.19.18a.65.65,0,0,1-.52.51h-.15l-1.41,0c-3.84-.21-7.68-.26-11.52-.18a5.55,5.55,0,0,0-3.86,1.44,1.87,1.87,0,0,0-.73,1.88,3.6,3.6,0,0,0,.29.93,6.89,6.89,0,0,0,3.69,3A38.24,38.24,0,0,0,28,85a26.2,26.2,0,0,0,5.77.85c.13,0,.26,0,.38,0v.06l-1,.12s0,.06,0,.09l.78.46c-.4.38-1,.28-1.32.77l.92.07c-.13.54-.29.69-.77.71-.17,0-.33,0-.49,0a.85.85,0,0,0-.26.11c.06.09.1.21.18.26s.31.1.45.17a3,3,0,0,1,.29.2c-.08.1-.14.24-.24.3a7.41,7.41,0,0,1-.7.31c-.16.08-.32.14-.55.24l.32.27a.18.18,0,0,0-.05.07l-.11.26a1.33,1.33,0,0,0,.28,0,2.43,2.43,0,0,0,.44-.06,4.9,4.9,0,0,1-.51.79.9.9,0,0,1-.52.32c-.77.1-1.55.16-2.32.22a15.84,15.84,0,0,0-1.95.14,7,7,0,0,1-1.44.15,4.91,4.91,0,0,0-2.19.79c-.2.09-.23.26,0,.36-.1.28-.12.54.24.63a.13.13,0,0,1,0,.09c-.06.25.14.24.25.18s.33-.21.36-.35a1,1,0,0,1,.62-.75,2,2,0,0,1,1.18-.27c-.14.35,0,.43.29.42s.72,0,1.07-.06h.3a2.39,2.39,0,0,0,.93,0,1.82,1.82,0,0,1,.78-.16c-.1.09-.09.22.13.3-.1.28-.12.54.25.63a.12.12,0,0,1,0,.09c-.05.25.15.24.25.18s.33-.21.36-.35A1,1,0,0,1,31,93v.2a1.78,1.78,0,0,0,.33-.09,2.34,2.34,0,0,0,.27-.15l0,0-.29.31c.11.24.27.21.44.11A2.39,2.39,0,0,0,32.3,93a.43.43,0,0,0,.29.08c.36,0,.72,0,1.07-.06H34a2.34,2.34,0,0,0,.92,0,3,3,0,0,1,1.44-.14c.29,0,.59,0,.85,0v.35a2.14,2.14,0,0,0,.34-.09c.09,0,.18-.1.27-.15l0,0c-.09.11-.19.21-.28.31.11.24.27.21.43.11a1.65,1.65,0,0,0,.84-.95,5.31,5.31,0,0,1,.43-1c.64-1.32,1.28-2.64,1.91-4,.1-.22.21-.44.3-.67l.13.05c.38.11.76.22,1.14.35a.8.8,0,0,1,.23.22,1.46,1.46,0,0,0,1,.57c.29,0,.59,0,.88.06,1.19.06,2.37.08,3.55.2a28.52,28.52,0,0,0,4.8.11c.34,0,.7-.06.77.42,0,0,0,0,0,0a1.37,1.37,0,0,1,.39-.19,5.82,5.82,0,0,1,1.1,0,39.33,39.33,0,0,0,4.07.21,18.16,18.16,0,0,1,3.46.28c1,.19,2,.31,2.94.41.6.05,1.2.06,1.8.15s1.32.26,2,.4l.37.09a1.09,1.09,0,0,1-1,.94l-.42.05c-.81.16-1.61.38-2.42.46a15.16,15.16,0,0,0-2.58.81c-.29.08-.27.37-.28.59s.12.24.2.34a3.5,3.5,0,0,0,.27.28c.07.07.15.14.22.22a.87.87,0,0,0,.14-.27.75.75,0,0,1,.33-.62,4.3,4.3,0,0,1,.57-.41,1.41,1.41,0,0,1,1.27-.26,1.14,1.14,0,0,0,.58,0c.19,0,.38-.13.58-.16.67-.11,1.34-.22,2-.29a1.4,1.4,0,0,0,1.28-1.24.43.43,0,0,1,.44-.35,6.82,6.82,0,0,1,2.33.29,3,3,0,0,0,.93.16c1.19,0,2.39,0,3.58-.07,2-.08,3.94-.28,5.91-.17a21,21,0,0,0,2.38-.07,10.45,10.45,0,0,0,3.45-1A4.15,4.15,0,0,0,91.9,86.9a1.87,1.87,0,0,0,.07-.22l.09,0a6.1,6.1,0,0,1,.34.54c.1.15,0,.26-.12.33a5,5,0,0,0-.52.26c-.25.13-.27.34,0,.44a1.65,1.65,0,0,0,.91.16,1.48,1.48,0,0,1,1.2,0,.42.42,0,0,0,.29,0c.31-.12.61-.24.9-.37s.35-.18.52-.26a.48.48,0,0,1-.06.29c-.22.4-.46.8-.67,1.2s-.34.7-.5,1.05a.29.29,0,0,0,.21.41c.08,0,.25-.07.3-.15.15-.25.23-.54.38-.78s.48-.74.73-1.11A.57.57,0,0,1,96,89c-.09.48-.21,1-.29,1.43a1.4,1.4,0,0,0,0,.54.21.21,0,0,0,.42,0,4.05,4.05,0,0,0,.12-.5c.11-.53.23-1.06.37-1.68a2.24,2.24,0,0,1,.23.55,6.07,6.07,0,0,1-.21,2.54.88.88,0,0,0-.1.44.49.49,0,0,0,.22.34.27.27,0,0,0,.37-.21,1.58,1.58,0,0,0,.09-.42l.24-2.29c.06.71.08,1.42.13,2.13,0,.19-.1.53.18.53s.23-.34.25-.55,0-.61,0-.92a3.89,3.89,0,0,0,.09-.47c0-.59-.11-1.17-.17-1.76,0-.15,0-.22.2-.28.4-.14.78-.32,1.17-.5.21-.1.42-.23.66-.36.1.59.19,1.14.3,1.69s.22,1.08.36,1.61a.34.34,0,0,0,.23.21c.57,0,1.13-.13,1.7-.19a.63.63,0,0,1,.27,0,1.05,1.05,0,0,0,.88-.13,1.05,1.05,0,0,1,1.28.08,1.25,1.25,0,0,0,.27.13c.17-.3.32-.55.49-.83a3.12,3.12,0,0,0-1.82-.08,1.78,1.78,0,0,1-1.19.19,2.86,2.86,0,0,0-1.12.06c-.24,0-.32,0-.36-.27-.15-.85-.31-1.69-.48-2.53-.08-.38-.05-.47.29-.69a1,1,0,0,0,.32-.27c.32-.43.63-.88.94-1.32a4.16,4.16,0,0,0,.47-.71c.32-.73.65-1.47.9-2.23a26.1,26.1,0,0,0,.67-2.6,1.08,1.08,0,0,1,.16-.47,3.39,3.39,0,0,0,1.28-.62A2.35,2.35,0,0,0,107,76.92a.45.45,0,0,1,0-.11,3.76,3.76,0,0,0,.42-.91,5.13,5.13,0,0,0-.93-4.38,26.74,26.74,0,0,0-3.52-3.62A9.43,9.43,0,0,1,100.45,64a11.51,11.51,0,0,1,1.07-9.12,18,18,0,0,1,6.89-6.64L109,48a4.47,4.47,0,0,1,1,.46c3.1,1.89,3.41,5.89,3.6,9.14,0,.59,1,.59.92,0-.19-3.19-.48-6.84-3-9.14a7.06,7.06,0,0,0-1.42-1,7.33,7.33,0,0,1,3.24-.53,5.52,5.52,0,0,1,3.79,2.18c2.26,2.84,2,6.69,1.72,10.1,0,.59.88.59.92,0l0-.57C120.13,55.13,120.18,51.37,117.9,48.5ZM39.8,86.79c-.35.17-.74.2-1,.57l.92.08c-.12.54-.29.68-.77.7-.16,0-.33,0-.49,0a1.23,1.23,0,0,0-.26.12c.06.08.09.2.18.25s.3.1.45.17a1.94,1.94,0,0,1,.29.21c-.08.1-.14.23-.24.29s-.46.22-.69.32l-.56.23.32.27,0,.07-.11.26a.89.89,0,0,0,.28,0,2.66,2.66,0,0,0,.45-.06,5.69,5.69,0,0,1-.52.79,1,1,0,0,1-.52.33c-.77.09-1.54.15-2.32.21a17.71,17.71,0,0,0-1.94.14l-.38.07c.07-.14.14-.27.2-.41.64-1.32,1.28-2.64,1.91-4,.18-.36.34-.73.49-1.11s.22-.4.59-.38c1,.07,2.06.12,3.09.17h.3l.39.23ZM45,74.66c-.08.24-.19.34-.45.26a1.12,1.12,0,0,0-.41,0l0,.08.41.43-.65.27a.44.44,0,0,1,0,.1,2.6,2.6,0,0,1,.4.1.34.34,0,0,1,.19.18.6.6,0,0,1-.3.43l-4.71.06c.32-.82.59-1.58.91-2.32.48-1.12,1-2.22,1.49-3.32.24-.55.48-1.1.7-1.66s.48-1.29.71-2,.53-1.47.79-2.21l1-2.94c.08-.22.18-.28.37-.1a.64.64,0,0,0,.35.15.56.56,0,0,1,.59.34,1.71,1.71,0,0,0,.95.82,10.09,10.09,0,0,1,1.59.76c-.09.27-.18.54-.28.81-.48,1.39-1,2.77-1.45,4.15-.15.43-.14.43-.56.33,0,0-.05,0-.14,0,.11.22.21.43.32.64l-.08,0-.5.16.35.43c-.13.3-.29.65-.42,1s-.21.43-.51.21c0,0-.14,0-.22,0a.87.87,0,0,0,0,.22c.07.12.17.22.27.36a1.8,1.8,0,0,0-.31.17c-.12.1-.23.21-.34.32l.4.22C45.33,73.7,45.13,74.18,45,74.66Zm.69,1.83c.31-.79.58-1.53.88-2.25.48-1.12,1-2.22,1.49-3.32.24-.55.48-1.1.7-1.66s.48-1.29.72-2,.53-1.47.79-2.21c0,0,0,0,0,0a31.49,31.49,0,0,1,3.65,3.56c1.26,1.49,2.46,3,3.68,4.55l1.53,1.9c.31.39.6.79.93,1.22Zm15.16-4.9a24.65,24.65,0,0,1-3.52-2.85,12.21,12.21,0,0,0-1.13-1,27.29,27.29,0,0,1-3.88-3.87l-1.1-1.41.09-.27c.09-.22.19-.28.38-.11a.54.54,0,0,0,.35.16.55.55,0,0,1,.58.34,1.74,1.74,0,0,0,1,.82,9.16,9.16,0,0,1,2.71,1.55,32.23,32.23,0,0,1,3.85,3.72c1.26,1.49,2.45,3,3.67,4.55.18.21.35.43.53.65C63.11,73.1,61.94,72.37,60.8,71.59Zm44-21.91a17.83,17.83,0,0,0-3.29,3.54,13.05,13.05,0,0,0-2.36,9.09,10.28,10.28,0,0,0,1.62,4.44,27.24,27.24,0,0,0,3.66,3.78c1.12,1.11,2.3,2.59,2.24,4.26a2.4,2.4,0,0,1-.05.46,5.41,5.41,0,0,0-1.78-1.68c-1.18-.75-2.46-1.29-3.69-1.95A8.5,8.5,0,0,1,98,69.17a10.55,10.55,0,0,1-1.55-4.9,19.82,19.82,0,0,1,.08-5.44,14.3,14.3,0,0,1,4.54-8.53,10.86,10.86,0,0,1,4-2.23,8,8,0,0,1,2.43-.35A20.47,20.47,0,0,0,104.78,49.68Z"/></svg>