<svg id="Layer_1" data-name="Layer 1" xmlns="http://www.w3.org/2000/svg" viewBox="0 0 140 140"><defs><style>.cls-1{opacity:0.1;}.cls-2{fill:#fff;}</style></defs><title>VoG</title><rect class="cls-1" x="-19" y="-18" width="657" height="483"/><path class="cls-2" d="M118.35,65.77l-15-15.26L103.42,33A5.73,5.73,0,0,0,92,32.92l0,6L80.71,27.6a15.07,15.07,0,0,0-20.84-.13L21.71,65.09a5.73,5.73,0,1,0,8.05,8.17L67.91,35.63a3.38,3.38,0,0,1,4.64,0l37.63,38.16a5.72,5.72,0,0,0,4,1.7,5.63,5.63,0,0,0,4.06-1.65,5.72,5.72,0,0,0,.06-8.1Z"/><path class="cls-2" d="M72.15,46.54a2.81,2.81,0,0,0-4,0L34.6,79.6a2.79,2.79,0,0,0-.83,2l-.17,24.3a10.33,10.33,0,0,0,10.25,10.4l16.5.11.18-25.55L79.16,91,79,116.53l16.5.12a10.33,10.33,0,0,0,10.4-10.26l.17-24.3a2.85,2.85,0,0,0-.81-2Z"/></svg>