<svg id="Layer_1" data-name="Layer 1" xmlns="http://www.w3.org/2000/svg" viewBox="0 0 140 140"><defs><style>.cls-1{opacity:0.1;}.cls-2{fill:#fff;}</style></defs><title>VoG</title><rect class="cls-1" x="-179" y="-18" width="657" height="483"/><path class="cls-2" d="M120,70.35c0-3.27-.85-5.77-2.68-7.62a12,12,0,0,0-7.15-3.19,12,12,0,0,0,4.68-6.28c.69-2.51.24-5.11-1.37-8-2.1-3.68-5-5.56-8.58-5.59a14.07,14.07,0,0,0-5.35,1.15,12,12,0,0,0,.93-7.78c-.66-2.52-2.36-4.55-5.18-6.21a11.36,11.36,0,0,0-5.7-1.76c-3.13,0-6,1.62-8.58,4.88a11.93,11.93,0,0,0-3.09-7.2C76.1,20.94,73.62,20,70.35,20s-5.77.86-7.62,2.68a12.06,12.06,0,0,0-3.2,7.16c-2.52-3.3-5.37-5-8.5-5a11.47,11.47,0,0,0-5.73,1.68c-2.84,1.62-4.56,3.63-5.26,6.14a12,12,0,0,0,.81,7.79,13.85,13.85,0,0,0-5.33-1.22c-3.59,0-6.5,1.81-8.65,5.47-1.65,2.82-2.14,5.42-1.49,7.94A12,12,0,0,0,30,59a12,12,0,0,0-7.19,3.09C20.93,63.9,20,66.38,20,69.65s.85,5.77,2.68,7.62a12,12,0,0,0,7.15,3.19,12,12,0,0,0-4.68,6.28c-.69,2.51-.24,5.11,1.37,8,2.1,3.68,5,5.56,8.58,5.59a14.07,14.07,0,0,0,5.35-1.15,12,12,0,0,0-.93,7.78c.66,2.52,2.36,4.55,5.18,6.21a11.36,11.36,0,0,0,5.7,1.76c3.13,0,6-1.62,8.58-4.88a11.93,11.93,0,0,0,3.09,7.2c1.83,1.86,4.31,2.77,7.58,2.79h0c3.27,0,5.77-.85,7.62-2.68a12.06,12.06,0,0,0,3.2-7.16c2.52,3.3,5.37,5,8.5,5a11.47,11.47,0,0,0,5.73-1.68c2.84-1.62,4.56-3.63,5.26-6.14a12,12,0,0,0-.81-7.79,13.89,13.89,0,0,0,5.33,1.22c3.59,0,6.5-1.81,8.65-5.47,1.65-2.82,2.14-5.42,1.49-7.94A12,12,0,0,0,110,81a12,12,0,0,0,7.19-3.09C119.07,76.1,120,73.62,120,70.35ZM98.85,46.64a12.82,12.82,0,0,1,6-2c1.82,0,3.12.94,4.35,3.11a5.51,5.51,0,0,1,.91,4.25c-.47,1.73-2.25,3.49-5.29,5.21-4.93,2.81-15.2,4.48-21.6,5.3C87.22,57.4,93.92,49.44,98.85,46.64ZM83.3,35.35C85.39,31.79,87.5,30,89.56,30a6.76,6.76,0,0,1,3.27,1.1,5.54,5.54,0,0,1,2.91,3.22c.46,1.74-.21,4.15-2,7.16C90.89,46.37,82.84,53,77.7,56.87,78.61,50.48,80.43,40.24,83.3,35.35Zm-13-10.45c2.94,0,6.06.69,6,8.52,0,5.67-3.72,15.4-6.21,21.36-2.42-6-6-15.77-5.92-21.44C64.25,25.51,67.38,24.88,70.31,24.9ZM44.76,34a5.6,5.6,0,0,1,3-3.18A6.76,6.76,0,0,1,51,29.73c2.06,0,4.15,1.84,6.18,5.44,2.81,4.92,4.48,15.19,5.3,21.59-5.08-4-13-10.68-15.84-15.61C44.91,38.11,44.28,35.7,44.76,34ZM31.1,47.18c1.26-2.16,2.57-3.07,4.39-3.06a12.84,12.84,0,0,1,6,2.12C46.37,49.11,53,57.16,56.87,62.3c-6.4-.91-16.63-2.73-21.52-5.6-3-1.77-4.78-3.55-5.23-5.29A5.53,5.53,0,0,1,31.1,47.18ZM26.17,73.84a5.54,5.54,0,0,1-1.27-4.15c0-2.94.69-6.06,8.52-6,5.67,0,15.4,3.72,21.36,6.21-6,2.42-15.77,6-21.44,5.92C29.84,75.78,27.43,75.12,26.17,73.84Zm15,19.52a12.7,12.7,0,0,1-6,2c-1.82,0-3.12-.94-4.35-3.11A5.5,5.5,0,0,1,29.87,88c.47-1.73,2.26-3.49,5.29-5.21,4.93-2.8,15.2-4.48,21.6-5.3C52.78,82.61,46.08,90.56,41.15,93.36ZM56.7,104.65c-2.09,3.57-4.2,5.36-6.26,5.35a6.76,6.76,0,0,1-3.27-1.1,5.54,5.54,0,0,1-2.91-3.22c-.46-1.74.21-4.15,2-7.16C49.11,93.63,57.16,87,62.3,83.13,61.39,89.53,59.57,99.76,56.7,104.65Zm13,10.46c-1.94,0-3.26-.44-4.14-1.34-1.26-1.28-1.89-3.7-1.87-7.19,0-5.67,3.72-15.4,6.21-21.35,2.42,6,6,15.76,5.92,21.43C75.75,114.49,72.62,115.13,69.69,115.11Zm.25-37a8.14,8.14,0,1,1,8.2-8.08A8.14,8.14,0,0,1,69.94,78.14ZM95.24,106a5.6,5.6,0,0,1-3,3.18,6.76,6.76,0,0,1-3.28,1c-2.06,0-4.15-1.84-6.18-5.43-2.81-4.93-4.48-15.19-5.3-21.6,5.08,4,13,10.68,15.84,15.61C95.09,101.89,95.72,104.31,95.24,106ZM108.9,92.83c-1.26,2.15-2.57,3.06-4.39,3a12.73,12.73,0,0,1-6-2.12C93.63,90.89,87,82.85,83.13,77.71c6.4.9,16.63,2.72,21.52,5.59,3,1.77,4.78,3.55,5.23,5.29A5.56,5.56,0,0,1,108.9,92.83Zm4.87-18.38c-1.28,1.27-3.7,1.89-7.19,1.87h0c-5.67,0-15.4-3.72-21.36-6.21,6-2.42,15.77-6,21.44-5.92,3.5,0,5.91.69,7.17,2a5.55,5.55,0,0,1,1.27,4.16A5.51,5.51,0,0,1,113.77,74.45Z"/></svg>