<svg id="Layer_1" data-name="Layer 1" xmlns="http://www.w3.org/2000/svg" viewBox="0 0 140 140"><defs><style>.cls-1{opacity:0.1;}.cls-2{fill:#fff;}</style></defs><title>VoG</title><rect class="cls-1" x="-499" y="-18" width="657" height="483"/><path class="cls-2" d="M55.31,54.59h0l29.58.21a.41.41,0,0,1,.39.4l-.19,28.31a.43.43,0,0,1-.4.4l-2.08,0-5,0,0,5-.18,25.68a.41.41,0,0,1-.39.4l-14.57-.1a.37.37,0,0,1-.27-.12.39.39,0,0,1-.12-.28l.18-25.6,0-5-5,0H55.11a.36.36,0,0,1-.27-.12.39.39,0,0,1-.12-.28l.2-28.4a.36.36,0,0,1,.39-.4m0-5A5.39,5.39,0,0,0,49.88,55l-.19,28.41a5.43,5.43,0,0,0,5.38,5.46h2.09L57,114.43a5.44,5.44,0,0,0,5.38,5.47l14.57.1h0a5.44,5.44,0,0,0,5.42-5.39l.18-25.69,2.08,0h0a5.45,5.45,0,0,0,5.43-5.39l.19-28.31a5.44,5.44,0,0,0-5.39-5.47l-29.57-.21Z"/><path class="cls-2" d="M70.21,25h.05a7.54,7.54,0,0,1-.05,15.08h0a7.54,7.54,0,0,1,0-15.08m0-5a12.57,12.57,0,0,0-.09,25.14h.09A12.57,12.57,0,0,0,70.3,20Z"/></svg>