<svg id="Layer_1" data-name="Layer 1" xmlns="http://www.w3.org/2000/svg" viewBox="0 0 140 140"><defs><style>.cls-1{opacity:0.1;}.cls-2{fill:#fff;}</style></defs><title>VoG</title><rect class="cls-1" x="-179" y="-172" width="657" height="483"/><path class="cls-2" d="M81.73,79.09A7.1,7.1,0,0,0,87,81.58a7.21,7.21,0,0,0,6.74-4.83,1.54,1.54,0,0,0-.91-2,1.52,1.52,0,0,0-2,.91,4,4,0,0,1-7.63,0,1.54,1.54,0,0,0-1.42-1h-.1a1.53,1.53,0,0,0-1.42,1,4,4,0,0,1-7.63-.06,1.53,1.53,0,0,0-1.42-1h-.1a1.52,1.52,0,0,0-1.42,1,4,4,0,0,1-7.63-.05,1.54,1.54,0,0,0-2.9,1,7.21,7.21,0,0,0,6.67,4.92A7.07,7.07,0,0,0,71.16,79a6.93,6.93,0,0,0,10.57.07Z"/><path class="cls-2" d="M107.7,73.27c-5.25-6-12.19-9.41-19.53-9.46a27.35,27.35,0,0,0-9.42,1.67,6.33,6.33,0,0,1-2.28.34,30.1,30.1,0,0,1-6.82-1.26A36,36,0,0,0,61,63a12.21,12.21,0,0,0-11,6.09c-2.25,3.49-5.38,5.05-8.42,6.56C36.83,78,32,80.44,31.91,89.27c-.05,7.07,2.44,13.07,7.2,17.35,5.67,5.11,14.44,7.74,26,7.82,2.06,0,4.23-.06,6.47-.2a26,26,0,0,0,8.66-2.41c2.56-1.06,5-2.06,7.84-2a14.15,14.15,0,0,1,4,.63,26.24,26.24,0,0,0,7.28,1.2,13.6,13.6,0,0,0,12.93-7.73A29.11,29.11,0,0,0,115,91.22C115,85.28,112.31,78.57,107.7,73.27ZM110.4,98a3.9,3.9,0,0,1-3.34,2,4,4,0,0,1-3.66-2.85,1.54,1.54,0,0,0-1.43-1h-.08a1.52,1.52,0,0,0-1.44,1,3.81,3.81,0,0,1-7.36,0,1.54,1.54,0,0,0-1.43-1h-.08a1.53,1.53,0,0,0-1.44,1,3.81,3.81,0,0,1-7.36-.05,1.56,1.56,0,0,0-1.43-1h-.08a1.55,1.55,0,0,0-1.44,1,4,4,0,0,1-3.7,2.8,3.26,3.26,0,0,1-3.31-2.5,1.55,1.55,0,0,0-1.95-1,1.53,1.53,0,0,0-1,2,6.35,6.35,0,0,0,6.2,4.59,6.9,6.9,0,0,0,5.17-2.38,6.71,6.71,0,0,0,10.31.07,6.71,6.71,0,0,0,10.31.07,6.82,6.82,0,0,0,5.14,2.45,5.77,5.77,0,0,0,1.38-.14,9.83,9.83,0,0,1-9,4.78,22.36,22.36,0,0,1-6.2-1,18.44,18.44,0,0,0-5.07-.8c-3.66,0-6.55,1.18-9.34,2.34a22.54,22.54,0,0,1-7.44,2.12c-2.15.14-4.23.21-6.19.19-10.64-.07-18.55-2.37-23.5-6.82a17.77,17.77,0,0,1-5.83-12,6.93,6.93,0,0,0,3,.65A7.13,7.13,0,0,0,44.19,90,7,7,0,0,0,54.87,90a7,7,0,0,0,10.68.08,7.15,7.15,0,0,0,5.32,2.5,7.29,7.29,0,0,0,6.8-4.83,1.54,1.54,0,0,0-2.89-1.06A4.06,4.06,0,0,1,67,86.67a1.55,1.55,0,0,0-1.41-1h-.1a1.55,1.55,0,0,0-1.43,1,4.05,4.05,0,0,1-7.74-.05,1.52,1.52,0,0,0-1.41-1h0s-.05,0-.07,0a1.52,1.52,0,0,0-1.43,1,4.06,4.06,0,0,1-7.74,0,1.55,1.55,0,0,0-1.41-1h-.1a1.53,1.53,0,0,0-1.42,1,4.21,4.21,0,0,1-3.9,2.82,3.34,3.34,0,0,1-3-1.56c.48-5.18,3.31-6.59,7.41-8.63,3.33-1.66,7.11-3.54,9.93-7.92a8.42,8.42,0,0,1,7.76-4.33,33.88,33.88,0,0,1,7.75,1.39,32.56,32.56,0,0,0,7.76,1.39A10.23,10.23,0,0,0,80,69.1a23.71,23.71,0,0,1,8.1-1.45c6.22,0,12.14,2.94,16.66,8.14,4,4.55,6.39,10.45,6.36,15.4A31.39,31.39,0,0,1,110.4,98Z"/><path class="cls-2" d="M64.2,44.91l-8.3-.06a10.47,10.47,0,0,0-2-5.18l4.91-4.85a1.54,1.54,0,1,0-2.16-2.19l-4.91,4.85a10.52,10.52,0,0,0-5.16-2.07l.06-8.3a1.54,1.54,0,1,0-3.07,0l-.06,8.41a10.57,10.57,0,0,0-4.41,1.89l-4.85-4.92a1.54,1.54,0,0,0-2.19,2.16l4.85,4.92a10.47,10.47,0,0,0-2.08,5.17l-.22,0-8.07-.06a1.54,1.54,0,0,0,0,3.08l8.07.06a1.86,1.86,0,0,0,.33,0,10.59,10.59,0,0,0,1.91,4.47.84.84,0,0,0-.18.15L31.91,57A1.54,1.54,0,0,0,33,59.67a1.56,1.56,0,0,0,1.09-.44l4.75-4.68.15-.18a10.46,10.46,0,0,0,4.4,2l0,8.41a1.54,1.54,0,1,0,3.07,0l.06-8.3a10.58,10.58,0,0,0,5.18-2l4.85,4.91a1.48,1.48,0,0,0,1.08.46,1.54,1.54,0,0,0,1.11-2.61l-4.85-4.92a10.53,10.53,0,0,0,2-4.39l8.41.06a1.54,1.54,0,1,0,0-3.07ZM45.32,53.45A7.52,7.52,0,1,1,52.89,46,7.53,7.53,0,0,1,45.32,53.45Z"/></svg>