<svg id="Layer_1" data-name="Layer 1" xmlns="http://www.w3.org/2000/svg" viewBox="0 0 140 140"><defs><style>.cls-1{opacity:0.1;}.cls-2{fill:#fff;}</style></defs><title>VoG</title><rect class="cls-1" x="-499" y="-172" width="657" height="483"/><path class="cls-2" d="M70,46.67a3.16,3.16,0,1,1-3.16-3.16A3.16,3.16,0,0,1,70,46.67Z"/><path class="cls-2" d="M103.52,46.67a3.16,3.16,0,1,1-3.16-3.16,3.16,3.16,0,0,1,3.16,3.16Z"/><path class="cls-2" d="M111.57,47.86a13.27,13.27,0,0,0-11-13,2.06,2.06,0,0,0-.25-.49l-.11-.18a19.74,19.74,0,0,0-33.27,0l-.12.18a3.23,3.23,0,0,0-.25.49,13.23,13.23,0,0,0-7.68,21.77l-.8.23a2.28,2.28,0,0,0-.51.21c-.79.4-1.55.85-2.3,1.32a51.3,51.3,0,0,0-1.13-7.06c-2.7-11.7-9-21.38-16.88-25.91a2.82,2.82,0,0,0-3.72.86c-5.08,7.52-6.5,19-3.79,30.69,2,8.83,6.27,16.72,11.71,22A30.32,30.32,0,0,0,41,84.29,30.73,30.73,0,0,0,71.71,115H83.26l.33,0,.09,0,.25,0,.08,0a1.32,1.32,0,0,0,.3-.1h0l.3-.15h0C99.5,106.05,106.94,87.82,103,70a44.28,44.28,0,0,0,3.49-11,2.84,2.84,0,0,0,0-.71A13.29,13.29,0,0,0,111.57,47.86Zm-42.7-7.65a7.57,7.57,0,0,1,2.8.52,10.61,10.61,0,0,1-6.28,14,7.66,7.66,0,0,1,3.48-14.48ZM35.23,55.66c-2-8.82-1.41-17.66,1.59-23.86,5.41,4.25,9.86,11.92,11.9,20.74a44.76,44.76,0,0,1,1.19,10.11,30.46,30.46,0,0,0-6.61,10A41.19,41.19,0,0,1,35.23,55.66ZM85.85,107V95.51a2.8,2.8,0,1,0-5.6,0v11.57l-.4-.3C73.67,101.77,68,96.22,68,89.59a2.8,2.8,0,1,0-5.59,0c0,8.08,5.69,14.52,11.86,19.81H71.71A25.15,25.15,0,0,1,46.6,84.29a24.83,24.83,0,0,1,.67-5.74l0-.1a25.05,25.05,0,0,1,7.14-12.39l.28-.25a25,25,0,0,1,5.23-3.7l1.35-.39a44,44,0,0,0,4.3,11,2.81,2.81,0,0,0,.86,1l.87.6a26.65,26.65,0,0,0,11.61,4.52v1.9a2,2,0,0,0,4,0V79.05a2.39,2.39,0,0,0,.66.09,2.52,2.52,0,0,0,.67-.09v1.67a2,2,0,1,0,4,0V78.87a26.35,26.35,0,0,0,10-3.16C99.49,87.93,94.79,99.81,85.85,107ZM96.61,70.17l-.1.07a20.82,20.82,0,0,1-10.12,3.17V70.07a5,5,0,0,0,.94-.74l.13-.13a5.28,5.28,0,0,0-3.74-9h-.26a5.28,5.28,0,0,0-3.73,9l.13.13a4.44,4.44,0,0,0,.94.74v3.32a20.81,20.81,0,0,1-10.3-3.7l-.32-.22a38.52,38.52,0,0,1-3.51-9.31,16.21,16.21,0,0,0,9.6-22.81A2.74,2.74,0,0,0,75,36.1a13.18,13.18,0,0,0-1.9-.8,14.17,14.17,0,0,1,21,0,14.1,14.1,0,0,0-1.88.79,2.83,2.83,0,0,0-1.32,1.26,16.2,16.2,0,0,0,9.61,22.81A38.57,38.57,0,0,1,96.61,70.17Zm5.18-15.48a10.58,10.58,0,0,1-7-10,10.33,10.33,0,0,1,.77-4,7.66,7.66,0,0,1,6.27,14Z"/></svg>