<svg id="Layer_1" data-name="Layer 1" xmlns="http://www.w3.org/2000/svg" viewBox="0 0 140 140"><defs><style>.cls-1{opacity:0.1;}.cls-2{fill:#fff;}</style></defs><title>VoG</title><rect class="cls-1" x="-339" y="-172" width="657" height="483"/><path class="cls-2" d="M109.66,30.82a1.14,1.14,0,0,0-1.25-.27l-15,5.87a1.19,1.19,0,0,0-.74,1.08L92.62,46,48.18,89.81l-9.48-.06a1.17,1.17,0,1,0,0,2.33l7.14,0-1.41,1.39-9.47-.06a1.17,1.17,0,1,0,0,2.33l7.14,0-1.41,1.39-9.47-.06a1.17,1.17,0,1,0,0,2.33l8.79.06-.06,8.8a1.17,1.17,0,0,0,2.34,0l.06-9.48L43.7,97.5l-.05,7.15a1.17,1.17,0,0,0,2.34,0l.06-9.47,1.41-1.4-.05,7.15a1.17,1.17,0,0,0,2.34,0l.07-9.47L94.26,47.64l8.48.06a1.15,1.15,0,0,0,1.09-.72l6.08-14.9a1.16,1.16,0,0,0-.25-1.26ZM102,45.36l-5.36,0,5.52-5.44a1.17,1.17,0,0,0-1.64-1.67L95,43.66l0-5.35,11.71-4.59Zm0,0"/></svg>