<svg id="Layer_1" data-name="Layer 1" xmlns="http://www.w3.org/2000/svg" viewBox="0 0 140 140"><defs><style>.cls-1{opacity:0.1;}.cls-2{fill:#fff;}</style></defs><title>VoG</title><rect class="cls-1" x="-499" y="-332" width="657" height="483"/><path class="cls-2" d="M88,105.55h0a2,2,0,0,0,0,3.9h0a2,2,0,1,0,0-3.9Z"/><path class="cls-2" d="M101.39,55.39c-3.81-5.86-8.7-9.22-13.42-9.22s-9.61,3.36-13.42,9.22a43.31,43.31,0,0,0-6.5,23.07c0,7.22,1.8,13.24,5.2,17.41s8.59,6.55,14.72,6.55,11.21-2.26,14.72-6.55,5.2-10.19,5.2-17.41A43.31,43.31,0,0,0,101.39,55.39ZM88,98.52c-10.18,0-16-7.31-16-20.06a39.33,39.33,0,0,1,5.87-20.94c3-4.66,6.83-7.44,10.15-7.44s7.11,2.78,10.14,7.44A39.33,39.33,0,0,1,104,78.46C104,91.21,98.15,98.52,88,98.52Z"/><path class="cls-2" d="M119,74.13a2,2,0,0,0-2.3.35l-1.79,1.81c0-.44,0-.87-.07-1.3a43.92,43.92,0,0,0,4.1-12.36c1-6.74-.61-12.28-4.74-16.46a2,2,0,0,0-2.15-.43,1.94,1.94,0,0,0-1.19,1.84,24.59,24.59,0,0,1-1.08,8.31c-.09-.2-.19-.39-.29-.58-.16-13.6-7.9-25.27-8.23-25.77a2,2,0,0,0-3.58,1.09V41.89l-.33-.19c-1.25-2.05-6.54-11.13-7.4-19.94a1.95,1.95,0,0,0-3.89.17c-.1,8.63-6,17.8-7.34,19.74l-.39.22V30.63a1.95,1.95,0,0,0-3.57-1.09,48.43,48.43,0,0,0-3.26,5.92c-.41-.29-.83-.58-1.26-.85A15.78,15.78,0,0,0,68.83,24a1.93,1.93,0,0,0-1.74-1.1h0A2,2,0,0,0,65.33,24c-2.42,4.84-8.58,6.23-9.59,6.43-1-.19-7.15-1.56-9.58-6.43a2,2,0,0,0-3.51,0,15.8,15.8,0,0,0-1.4,10.41c-.14.08-.28.16-.41.25a26.14,26.14,0,0,0-10,12.22c0,.05-.12.27-.14.35-1.93,5.26-6.22,14.13-9.49,15.56A1.94,1.94,0,0,0,20,64.72a2,2,0,0,0,1.39,1.76,8.55,8.55,0,0,0,2.43.35,11.4,11.4,0,0,0,4.29-.92c.09,1.24.22,2.49.39,3.73A53,53,0,0,0,29.79,76a.24.24,0,0,0,0,.08c0,8-1.28,21.41-4.59,24.36a1.94,1.94,0,0,0-.42,2.4,2,2,0,0,0,1.71,1,1.68,1.68,0,0,0,.54-.08c4.32-1.23,7.58-6,10.52-11.45A27.13,27.13,0,0,0,48.24,101a41.06,41.06,0,0,0,2.7,7c1.44,3.09,2.69,5.76,2.69,10a1.95,1.95,0,0,0,3.9,0c0-4.26,1.25-6.93,2.69-10a38.4,38.4,0,0,0,3-8.11,1.95,1.95,0,1,0-3.8-.87,34.52,34.52,0,0,1-2.72,7.33c-.37.8-.75,1.6-1.1,2.43-.35-.83-.72-1.63-1.1-2.43a31.23,31.23,0,0,1-3.14-9.69A24.76,24.76,0,0,1,52,86.92a2,2,0,1,0-3.78-1,29.07,29.07,0,0,0-.88,10.25,26.71,26.71,0,0,1-7.78-7.74c.27-.53.53-1.07.8-1.6a76.08,76.08,0,0,1,5.85-10.47,2,2,0,1,0-3.15-2.31,77.5,77.5,0,0,0-6.2,11A102.27,102.27,0,0,1,32,94.2c.43-2,.78-4.27,1.07-6.85.66-6,.67-11.28.67-11.5a4.18,4.18,0,0,0-.16-.83,51.69,51.69,0,0,1-1.19-5.92,47.39,47.39,0,0,1-.45-5.29c.84-.59,1.71-1.25,2.59-2a46.67,46.67,0,0,0,6-6.24,2,2,0,0,0-3.08-2.4c-1.58,2-5.72,6.51-9.76,8.61a44.6,44.6,0,0,0,3.24-5.49,75.78,75.78,0,0,0,3.39-7.7l.08-.18c3.72-8.87,11.44-14,21.17-14a22.75,22.75,0,0,1,14.29,4.71,46.39,46.39,0,0,0-3.38,16.15l-.3.59a24.84,24.84,0,0,1-1.07-8.32,2,2,0,0,0-3.38-1.37c-3,3.23-4.71,8.42-4.69,14.26a24.27,24.27,0,0,0,4.12,14c-.05.64-.09,1.28-.11,1.92l-2-2a2,2,0,0,0-3.28,1.78c.18.92,4.64,22.5,18.14,29.4a25.56,25.56,0,0,0,4,2A2,2,0,0,0,79.34,104C70.18,100.4,64.92,91.1,64.92,78.46a46.5,46.5,0,0,1,7-24.77A25.46,25.46,0,0,1,80.77,45l.3-.16a14.33,14.33,0,0,1,13.8,0,1.59,1.59,0,0,0,.29.15A25.61,25.61,0,0,1,104,53.69a46.5,46.5,0,0,1,7,24.77c0,13-5.48,22.34-15,25.75a2,2,0,0,0,.65,3.79,2.17,2.17,0,0,0,.66-.11,24.86,24.86,0,0,0,4.59-2.2c13.61-6.84,17.89-28.55,18.07-29.47A2,2,0,0,0,119,74.13ZM44.89,32.59a11.67,11.67,0,0,1,.15-3.5,15.41,15.41,0,0,0,3,2.43A27.44,27.44,0,0,0,44.89,32.59Zm21.7.12a27.57,27.57,0,0,0-3.24-1.13,16.58,16.58,0,0,0,3.11-2.49A11.43,11.43,0,0,1,66.59,32.71ZM62.12,67.82a24,24,0,0,1-.38-13.5,18.38,18.38,0,0,0,2.39,6.41A52.38,52.38,0,0,0,62.12,67.82ZM74.39,44.76A30.28,30.28,0,0,0,71.26,48a49.67,49.67,0,0,1,3.13-9.5ZM88,39.14a18.07,18.07,0,0,0-3.37.32,50.75,50.75,0,0,0,3.56-8,64.76,64.76,0,0,0,3.46,8.07A17.88,17.88,0,0,0,88,39.14Zm13.58,5.62V38.51a51.11,51.11,0,0,1,3.13,9.5A31.28,31.28,0,0,0,101.55,44.76Zm10.25,16a18.72,18.72,0,0,0,2.54-7.24c1.75,4.62.77,9.83-.61,13.94A51.56,51.56,0,0,0,111.8,60.73Z"/><path class="cls-2" d="M89.13,53.58A1.93,1.93,0,1,0,89.71,55,2,2,0,0,0,89.13,53.58Z"/><path class="cls-2" d="M83.17,60.87a2,2,0,0,0-1.38-.57,2,2,0,1,0,0,3.9,2,2,0,0,0,1.38-3.33Z"/><path class="cls-2" d="M83.17,73.42a2,2,0,0,0-1.38-.57,2,2,0,0,0-2,2,2,2,0,0,0,2,2,2,2,0,0,0,1.38-3.34Z"/><path class="cls-2" d="M95.11,60.87a2,2,0,0,0-1.38-.57,2,2,0,0,0-1.38.57,2,2,0,0,0,0,2.76,2,2,0,0,0,1.38.57,2,2,0,0,0,1.38-3.33Z"/><path class="cls-2" d="M95.11,73.42a2,2,0,0,0-2.76,0,2,2,0,0,0,1.38,3.34,2,2,0,0,0,1.38-3.34Z"/><path class="cls-2" d="M83.17,87a2,2,0,0,0-2.77,0,2,2,0,0,0,0,2.76,2,2,0,0,0,2.77,0,2,2,0,0,0,0-2.76Z"/><path class="cls-2" d="M95.11,87a2,2,0,0,0-1.38-.57,2,2,0,0,0-2,2,2,2,0,0,0,2,1.95A2,2,0,0,0,95.11,87Z"/><path class="cls-2" d="M100.09,66.94a2,2,0,0,0-2.76,2.76,1.93,1.93,0,0,0,2.76,0,1.92,1.92,0,0,0,.57-1.38A2,2,0,0,0,100.09,66.94Z"/><path class="cls-2" d="M78.61,66.94a2,2,0,0,0-1.38-.57,2,2,0,0,0-2,1.95,2,2,0,0,0,2,2,2,2,0,0,0,2-2A2,2,0,0,0,78.61,66.94Z"/><path class="cls-2" d="M89.21,66.94a2,2,0,0,0-1.38-.57,2,2,0,0,0-2,1.95,2,2,0,0,0,2,2,2,2,0,0,0,2-2A2,2,0,0,0,89.21,66.94Z"/><path class="cls-2" d="M100.09,80.37a2,2,0,0,0-2.76,2.76,1.93,1.93,0,0,0,2.76,0,1.92,1.92,0,0,0,.57-1.38A2,2,0,0,0,100.09,80.37Z"/><path class="cls-2" d="M78.61,80.37a2,2,0,0,0-1.38-.57,2,2,0,0,0-2,2,2,2,0,0,0,2,2,2,2,0,0,0,2-2A2,2,0,0,0,78.61,80.37Z"/><path class="cls-2" d="M89.21,80.37a2,2,0,0,0-1.38-.57,2,2,0,0,0-2,2,2,2,0,0,0,2,2,2,2,0,0,0,2-2A2,2,0,0,0,89.21,80.37Z"/><path class="cls-2" d="M89.21,92.25a2,2,0,0,0-1.38-.57,2,2,0,0,0-2,1.95,2,2,0,0,0,2,2,2,2,0,0,0,1.38-3.34Z"/><path class="cls-2" d="M51.51,70.3A2,2,0,0,0,49,69.08h0l-.07,0a2,2,0,0,0,1.3,3.68h0A1.94,1.94,0,0,0,51.51,70.3Z"/><path class="cls-2" d="M64.36,39.82a2,2,0,0,0-2.67-.7c-.08,0-2,1.17-3.79,2.27a8.12,8.12,0,0,0-2.32,2.18,8.12,8.12,0,0,0-2.32-2.18c-1.78-1.1-3.71-2.23-3.79-2.27a1.95,1.95,0,1,0-2,3.37s2,1.15,3.7,2.22c2.21,1.37,2.42,4.56,2.42,4.58a2,2,0,0,0,3.9,0s.22-3.22,2.43-4.59c1.74-1.07,3.68-2.21,3.7-2.22A2,2,0,0,0,64.36,39.82Z"/></svg>