<svg id="Layer_1" data-name="Layer 1" xmlns="http://www.w3.org/2000/svg" viewBox="0 0 140 140"><defs><style>.cls-1{opacity:0.1;}.cls-2{fill:#fff;}</style></defs><title>VoG</title><rect class="cls-1" x="-179" y="-332" width="657" height="483"/><path class="cls-2" d="M112.94,72.68a7.16,7.16,0,0,1-2.69-1.54,6.42,6.42,0,0,1-.32-.6c-.82-1.65-2.73-5.51-6.65-5.54a7,7,0,0,0-1.93.28c-3.69,1-5.48,3.48-6.79,5.26-.75,1-1.34,1.83-2,2a3.1,3.1,0,0,1-.58,0q-1,0-1-.72a42,42,0,0,1-.09-6.34c.13-3.89.27-8.29-1-11.76-2.06-5.64-6.73-10.21-10.48-13.89-.94-.91-1.83-1.78-2.59-2.58-.29-.36-.59-.69-.88-1a9.58,9.58,0,0,1-1.12-1.36,31.45,31.45,0,0,1-2.88-6.36l-.21-.7a3.81,3.81,0,0,0-.38-.89c-.41-1-.9-1.92-1.66-1.93a.92.92,0,0,0-.36.07c-1.31.48-1.62,3.19-1.89,5.58a13.85,13.85,0,0,1-.51,3,4.46,4.46,0,0,1-1.31,1.63,4.35,4.35,0,0,0-1.52,2.16,2.85,2.85,0,0,0,.26,2.26,2.6,2.6,0,0,1,.33,1.75,3.06,3.06,0,0,1-1,1.73,3.23,3.23,0,0,0-1,2,3,3,0,0,0,.92,2.24,2.71,2.71,0,0,1,.82,1.77c0,.62-.37.92-.84,1.3a2.53,2.53,0,0,0-1.12,2.65,3.08,3.08,0,0,0,1.39,2c.56.45.9.75.87,1.26a5.59,5.59,0,0,1-.27,1.23A3.75,3.75,0,0,0,64.67,61a17.63,17.63,0,0,0,2.52,2.36,51.81,51.81,0,0,0-12.95-4.2c-8.18-1.34-16.1-4.57-20.35-6.31a16,16,0,0,0-3.26-1.18.32.32,0,0,0-.33.2c-.09.23.12.46.6.87l1.31,1.1c1.75,1.47,3.13,2.63,3.71,3.21-.28-.11-.7-.28-1.23-.51a.47.47,0,0,0-.63.1A.59.59,0,0,0,34,57c0,1.56,4.42,9.24,10.55,16.67,4.43,5.36,13,14.36,20.25,14.41A9.07,9.07,0,0,0,66.05,88c-2.92,3-13.52,10.81-22.89,14.62-11.32,4.61-16.43,7-16.8,8.86a1.25,1.25,0,0,0,.43,1.19,2.08,2.08,0,0,0,1.45.72,3,3,0,0,0,1-.22,3.1,3.1,0,0,1,1-.22,2.5,2.5,0,0,1,1.32.46A8.12,8.12,0,0,0,36.07,115c2,0,4.16-.84,6.69-2.6a2.3,2.3,0,0,1,1.38-.47,4.7,4.7,0,0,1,.83.1,6,6,0,0,0,1,.11,3.89,3.89,0,0,0,2.42-.92c6.25-4.72,13-5.57,20.22-6.46,8.47-1.06,17.23-2.15,26.69-9.32C103.35,89.33,105,84.05,106,80.56c.11-.37.21-.71.32-1,1.07-3.24,1.69-4,2.46-4.25.51-.17,1.77-.67,2.89-1.12l1.65-.64c.28-.09.31-.26.31-.35s0-.32-.73-.48Z"/></svg>