<svg id="Layer_1" data-name="Layer 1" xmlns="http://www.w3.org/2000/svg" viewBox="0 0 140 140"><defs><style>.cls-1{opacity:0.1;}.cls-2{fill:#fff;}</style></defs><title>VoG</title><rect class="cls-1" x="-19" y="-178" width="657" height="483"/><path class="cls-2" d="M73.84,70a21,21,0,1,1,21-21,21,21,0,0,1-21,21Zm0-50A29.3,29.3,0,0,0,62.37,76.26a.88.88,0,0,1,.17.09c.73.37,3.52,2,3.92,5,0,.22,0,.48,0,.73V98.71a2.77,2.77,0,0,1,0,.69,12.76,12.76,0,0,1-1.32,3.85,10.64,10.64,0,1,0,19.35,6.12,10.26,10.26,0,0,0-1.08-4.65,12.61,12.61,0,0,1-.68-1.19.41.41,0,0,1-.07-.11,10.75,10.75,0,0,1-1.45-4.66V82.1c0-3.46,3-5.24,3.89-5.72l.16-.07.11,0A29.32,29.32,0,0,0,73.83,20Zm0,0"/><path class="cls-2" d="M89.36,42.79C89,43.09,70.21,60.46,66.43,64a14.76,14.76,0,0,0,7.66,1.75c1.24-1.16,11.27-10.59,16.44-15.31a16.89,16.89,0,0,0-1.17-7.64Z"/><path class="cls-2" d="M87.6,39.5c-3.56,3.22-20.7,19-23.76,21.9l-.41.36s0,.05-.08.05L63.2,62a23.46,23.46,0,0,1-2.94-3.13l.37-.3c1-.94,22.17-20.48,24.05-22.22A18.73,18.73,0,0,1,87.6,39.5Z"/><path class="cls-2" d="M103.34,86.12a15.23,15.23,0,0,0,12.73,13c-4.43-.81-13.44,7-13.11,12.82-.22-4.31-4.8-12.17-12.73-13,3.86.32,12.31-5.11,13.11-12.82Z"/><path class="cls-2" d="M33,54.27a10.57,10.57,0,0,0,8.84,9c-3.08-.56-9.33,4.88-9.1,8.9-.15-3-3.34-8.44-8.84-9,2.67.22,8.55-3.55,9.1-8.9Z"/><path class="cls-2" d="M45.19,73.2a15.23,15.23,0,0,0,12.74,13c-4.44-.81-13.45,7-13.11,12.82-.22-4.3-4.8-12.17-12.74-13,3.86.32,12.31-5.11,13.11-12.82Z"/></svg>