<svg id="Layer_1" data-name="Layer 1" xmlns="http://www.w3.org/2000/svg" viewBox="0 0 140 140"><defs><style>.cls-1{opacity:0.1;}.cls-2{fill:#fff;}</style></defs><title>VoG</title><rect class="cls-1" x="-179" y="-178" width="657" height="483"/><path class="cls-2" d="M71.11,45.14A12.57,12.57,0,1,0,58.63,32.48,12.57,12.57,0,0,0,71.11,45.14Z"/><path class="cls-2" d="M91.29,55h-53V71.61h63.48V55Zm6.58,12.77H42.13v-8.9H97.87Z"/><path class="cls-2" d="M85.91,49.77l-29.57-.21a5.37,5.37,0,0,0-5,3.28H90.75A5.45,5.45,0,0,0,85.91,49.77Z"/><path class="cls-2" d="M58,114.43a5.44,5.44,0,0,0,5.38,5.47l14.57.1a5.44,5.44,0,0,0,5.46-5.39l.11-15.33H58.07Z"/><polygon class="cls-2" points="91.17 73.74 50.74 73.74 50.71 78.38 91.14 78.38 91.17 73.74"/><path class="cls-2" d="M50.7,80.51H38.26V97.15h63.48V80.51h-51Zm47.17,3.87v8.9H42.13v-8.9H97.87Z"/></svg>