<svg id="Layer_1" data-name="Layer 1" xmlns="http://www.w3.org/2000/svg" viewBox="0 0 140 140"><defs><style>.cls-1{opacity:0.1;}.cls-2{fill:#fff;}</style></defs><title>VoG</title><rect class="cls-1" x="-339" y="-18" width="657" height="483"/><path class="cls-2" d="M49.88,55l-.19,28.41a5.43,5.43,0,0,0,5.38,5.46h2.09L57,114.43a5.44,5.44,0,0,0,5.38,5.47l14.57.1a5.44,5.44,0,0,0,5.46-5.39l.18-25.69,2.08,0a5.45,5.45,0,0,0,5.47-5.39l.19-28.31a5.44,5.44,0,0,0-5.39-5.47l-29.57-.21A5.39,5.39,0,0,0,49.88,55Z"/><path class="cls-2" d="M82.78,32.66A12.57,12.57,0,1,1,70.3,20,12.57,12.57,0,0,1,82.78,32.66Z"/></svg>