<svg id="Layer_1" data-name="Layer 1" xmlns="http://www.w3.org/2000/svg" viewBox="0 0 140 140"><defs><style>.cls-1{opacity:0.1;}.cls-2{fill:#fff;}</style></defs><title>VoG</title><rect class="cls-1" x="-339" y="-332" width="657" height="483"/><path class="cls-2" d="M80,58.39a8.5,8.5,0,0,0,6.34,3,8.7,8.7,0,0,0,8.12-5.81,1.85,1.85,0,0,0-3.48-1.27,4.79,4.79,0,0,1-9.18-.07A1.83,1.83,0,0,0,80.05,53h-.11a1.84,1.84,0,0,0-1.72,1.21A4.79,4.79,0,0,1,69,54.14a1.85,1.85,0,0,0-1.71-1.23h-.11a1.85,1.85,0,0,0-1.72,1.21,4.79,4.79,0,0,1-9.18-.06,1.85,1.85,0,1,0-3.49,1.22,8.68,8.68,0,0,0,8,5.92,8.49,8.49,0,0,0,6.38-2.9A8.34,8.34,0,0,0,80,58.39Z"/><path class="cls-2" d="M111.22,51.38C104.89,44.1,96.54,40.06,87.71,40a32.83,32.83,0,0,0-11.34,2,7.83,7.83,0,0,1-2.74.41,36.65,36.65,0,0,1-8.21-1.52A43.07,43.07,0,0,0,55,39.07c-5.73,0-10.07,2.36-13.26,7.33-2.7,4.21-6.48,6.08-10.13,7.9C25.92,57.11,20.08,60,20,70.64c-.06,8.51,2.94,15.73,8.67,20.89,6.83,6.14,17.37,9.3,31.33,9.4,2.48,0,5.1-.06,7.79-.24a31.68,31.68,0,0,0,10.43-2.9c3.07-1.28,6-2.48,9.43-2.46a16.79,16.79,0,0,1,4.81.77,31.78,31.78,0,0,0,8.76,1.44c7,0,12.42-3.17,15.57-9.31C119.39,83.16,120,77.14,120,73,120.05,65.84,116.77,57.76,111.22,51.38Zm3.24,29.82a4.7,4.7,0,0,1-4,2.44A4.84,4.84,0,0,1,106,80.2,1.87,1.87,0,0,0,104.32,79h-.1a1.86,1.86,0,0,0-1.73,1.23,4.59,4.59,0,0,1-8.86-.06,1.84,1.84,0,0,0-1.72-1.25h-.1a1.85,1.85,0,0,0-1.73,1.22A4.58,4.58,0,0,1,81.22,80a1.86,1.86,0,0,0-1.72-1.25h-.1A1.83,1.83,0,0,0,77.67,80a4.84,4.84,0,0,1-4.45,3.37,3.94,3.94,0,0,1-4-3,1.85,1.85,0,0,0-3.5,1.2,7.65,7.65,0,0,0,7.46,5.52,8.26,8.26,0,0,0,6.22-2.87,8.08,8.08,0,0,0,12.41.09,8.28,8.28,0,0,0,6.19,3,8.19,8.19,0,0,0,6.22-2.87,8.26,8.26,0,0,0,6.19,3,8.35,8.35,0,0,0,1.66-.17,11.83,11.83,0,0,1-10.83,5.75,27.6,27.6,0,0,1-7.47-1.25,21.1,21.1,0,0,0-6.1-1c-4.39,0-7.87,1.41-11.24,2.81a27.58,27.58,0,0,1-9,2.56c-2.58.16-5.09.24-7.45.22-12.8-.09-22.32-2.85-28.28-8.21a21.41,21.41,0,0,1-7-14.48,8.33,8.33,0,0,0,3.58.79,8.59,8.59,0,0,0,6.45-2.92,8.44,8.44,0,0,0,12.85.09,8.44,8.44,0,0,0,12.85.09,8.63,8.63,0,0,0,6.41,3,8.76,8.76,0,0,0,8.18-5.81,1.85,1.85,0,0,0-3.47-1.28,4.88,4.88,0,0,1-9.32-.06,1.84,1.84,0,0,0-1.7-1.24h-.12a1.85,1.85,0,0,0-1.71,1.21,4.88,4.88,0,0,1-9.32-.07,1.86,1.86,0,0,0-1.7-1.23h-.12a1.86,1.86,0,0,0-1.72,1.21,4.88,4.88,0,0,1-9.31-.06,1.86,1.86,0,0,0-1.7-1.24h-.12A1.86,1.86,0,0,0,33,67.31a5,5,0,0,1-4.68,3.39,4,4,0,0,1-3.64-1.88c.58-6.23,4-7.93,8.91-10.38,4-2,8.57-4.26,12-9.54,2.33-3.63,5.21-5.23,9.34-5.2a40.45,40.45,0,0,1,9.33,1.67A39.89,39.89,0,0,0,73.59,47a12.6,12.6,0,0,0,4.34-.67,28.36,28.36,0,0,1,9.75-1.75c7.49.06,14.61,3.53,20,9.79,4.76,5.48,7.69,12.58,7.64,18.54A36.75,36.75,0,0,1,114.46,81.2Z"/></svg>