<svg id="Layer_1" data-name="Layer 1" xmlns="http://www.w3.org/2000/svg" viewBox="0 0 134.16 137.5"><defs><style>.cls-1{fill:#3e3b97;}.cls-2{fill:#ffcb29;}</style></defs><path class="cls-1" d="M109,117.91a7.88,7.88,0,0,0-10.73,2.91,2.62,2.62,0,1,0,4.54,2.61,2.62,2.62,0,0,1,4.55,2.61,2.61,2.61,0,0,0,1,3.57,2.64,2.64,0,0,0,3.57-1,7.88,7.88,0,0,0-2.9-10.74Zm0,0" transform="translate(-55.39 -45.49)"/><path class="cls-1" d="M136.61,129.61c1-1,1.68-2.32,1-3.57a2.62,2.62,0,1,1,4.55-2.61,2.62,2.62,0,1,0,4.54-2.61A7.86,7.86,0,1,0,133,128.65c.46.8,2.28,2.19,3.58,1Zm0,0" transform="translate(-55.39 -45.49)"/><path class="cls-1" d="M186.93,48.83a2.62,2.62,0,0,0-2.62,2.62c0,.18-.15,18.42-12.67,20.72l-6.12.55c4.19-7.17,3.62-18.15,3.58-18.8a2.62,2.62,0,1,0-5.23.3,43.66,43.66,0,0,1-.69,9.64c-.79,4-2.56,8.92-6.59,9.64,0,0-6.94.6-6.87.48,3.72-6.38,1-14.68.89-15a2.62,2.62,0,0,0-4.94,1.75c0,.06,2.12,6.2-.38,10.47A8.64,8.64,0,0,1,139.64,75a19,19,0,0,0-2.2.6c-6.5,2.52-8.79,10.11-9.54,13.83a52.89,52.89,0,0,0-10.87,0c-.75-3.72-3-11.31-9.53-13.83a8.14,8.14,0,0,0-2.21-.6,8.64,8.64,0,0,1-5.65-3.85c-2.5-4.26-.42-10.37-.38-10.47A2.62,2.62,0,0,0,94.32,59c-.12.34-2.57,8.64,1.16,15,.07.12-7.11-.47-7.14-.48-8.07-1.44-7.29-19.1-7.28-19.28a2.62,2.62,0,1,0-5.23-.3c0,.65-.61,11.63,3.58,18.8l-6.12-.55C60.82,69.88,60.63,51.63,60.63,51.45a2.62,2.62,0,0,0-5.24,0,39.76,39.76,0,0,0,2,11.52c2.77,8.16,8,13.13,15.1,14.38l32.27,2.9c4.66,1.13,6.47,7,7.09,10A36.17,36.17,0,0,0,99,95.77,16.3,16.3,0,0,0,97.43,94C91,87.53,69.39,86.83,67,86.77a2.63,2.63,0,0,0-2.68,2.68c.06,2.44.76,24,7.22,30.48A20.36,20.36,0,0,0,85,125.43a20.86,20.86,0,0,0,2.5,0A99.22,99.22,0,0,0,97,155.44a62.14,62.14,0,0,0,9.79,14.64c.13,7.14,7.12,12.91,15.72,12.91s15.59-5.77,15.71-12.91A62.14,62.14,0,0,0,148,155.44a99.61,99.61,0,0,0,9.45-30c.69,0,1.39,0,2.09,0a20.38,20.38,0,0,0,13.52-5.5c6.46-6.46,7.16-28,7.22-30.48a2.63,2.63,0,0,0-2.69-2.68c-2.43.06-24,.76-30.47,7.22a16.53,16.53,0,0,0-1.4,1.6,36,36,0,0,0-12.61-5.3c.63-3,2.43-8.91,7.09-10l32.27-2.9c7.11-1.25,12.33-6.22,15.1-14.38a40,40,0,0,0,2-11.52,2.62,2.62,0,0,0-2.62-2.62ZM90.2,102.33a2.67,2.67,0,0,0-3.69.4,2.64,2.64,0,0,0,.4,3.69,8.52,8.52,0,0,1,2,2.23,30.72,30.72,0,0,0-1.81,10.67c0,.28,0,.56,0,.85-4.3.28-9-1.07-11.9-3.94-3.37-3.37-5.11-15.56-5.58-24.11,8.55.47,20.74,2.21,24.11,5.58a11.34,11.34,0,0,1,1.21,1.45,26.54,26.54,0,0,0-3.47,4.34,15.6,15.6,0,0,0-1.27-1.16Zm32.27,75.42c-5.78,0-10.49-3.53-10.49-7.86s4.71-7.86,10.49-7.86S133,165.55,133,169.89s-4.71,7.86-10.48,7.86Zm28.32-80c3.37-3.37,15.56-5.11,24.11-5.58-.48,8.55-2.21,20.74-5.58,24.11a15.3,15.3,0,0,1-10,4,14.22,14.22,0,0,1-1.46,0c0-.29,0-.59,0-.87a30.73,30.73,0,0,0-2-11.07,8.46,8.46,0,0,1,1.72-1.83,2.62,2.62,0,0,0-3.28-4.09q-.54.44-1,.9a26.91,26.91,0,0,0-3.55-4.32,11,11,0,0,1,1-1.21Zm1.81,21.62c0,11.83-6.73,32.75-16.09,44.69-2.59-4.28-7.91-7.22-14-7.22s-11.46,2.94-14,7.22c-9.36-11.94-16.09-32.86-16.09-44.69,0-18.38,16.23-24.9,30.14-24.9s30.13,6.52,30.13,24.9Zm0,0" transform="translate(-55.39 -45.49)"/><path class="cls-1" d="M81.59,100.71A2.62,2.62,0,1,1,79,98.09a2.62,2.62,0,0,1,2.62,2.62Zm0,0" transform="translate(-55.39 -45.49)"/><path class="cls-1" d="M168.32,100.71a2.62,2.62,0,1,1-2.62-2.62,2.62,2.62,0,0,1,2.62,2.62Zm0,0" transform="translate(-55.39 -45.49)"/><path class="cls-2" d="M109,114.58a7.87,7.87,0,0,0-10.73,2.9,2.62,2.62,0,1,0,4.54,2.61,2.62,2.62,0,0,1,4.55,2.61,2.62,2.62,0,0,0,1,3.58,2.65,2.65,0,0,0,3.57-1,7.87,7.87,0,0,0-2.9-10.73Zm0,0" transform="translate(-55.39 -45.49)"/><path class="cls-2" d="M136.61,126.28c1-1,1.68-2.32,1-3.58a2.62,2.62,0,1,1,4.55-2.61,2.62,2.62,0,1,0,4.54-2.61A7.86,7.86,0,1,0,133,125.31c.46.8,2.28,2.2,3.58,1Zm0,0" transform="translate(-55.39 -45.49)"/><path class="cls-2" d="M186.93,45.49a2.62,2.62,0,0,0-2.62,2.62c0,.19-.15,18.43-12.67,20.72l-6.12.55c4.19-7.17,3.62-18.15,3.58-18.8a2.62,2.62,0,1,0-5.23.31,43.6,43.6,0,0,1-.69,9.63c-.79,4-2.56,8.93-6.59,9.64,0,0-6.94.61-6.87.49,3.72-6.39,1-14.69.89-15a2.62,2.62,0,0,0-4.94,1.75c0,.06,2.12,6.2-.38,10.47a8.69,8.69,0,0,1-5.65,3.86,18.93,18.93,0,0,0-2.2.59c-6.5,2.52-8.79,10.11-9.54,13.84a52.89,52.89,0,0,0-10.87,0c-.75-3.73-3-11.32-9.53-13.84a8.12,8.12,0,0,0-2.21-.59,8.69,8.69,0,0,1-5.65-3.86c-2.5-4.25-.42-10.37-.38-10.47a2.62,2.62,0,0,0-4.94-1.75c-.12.34-2.57,8.64,1.16,15,.07.12-7.11-.48-7.14-.49-8.07-1.44-7.29-19.1-7.28-19.27a2.62,2.62,0,0,0-5.23-.31c0,.65-.61,11.63,3.58,18.8l-6.12-.55C60.82,66.55,60.63,48.29,60.63,48.11a2.62,2.62,0,0,0-5.24,0,39.71,39.71,0,0,0,2,11.52c2.77,8.16,8,13.14,15.1,14.39l32.27,2.89c4.66,1.13,6.47,7,7.09,10A35.82,35.82,0,0,0,99,92.44a14.61,14.61,0,0,0-1.53-1.78C91,84.19,69.39,83.49,67,83.43a2.63,2.63,0,0,0-2.68,2.69c.06,2.44.76,24,7.22,30.48A20.41,20.41,0,0,0,85,122.1c.83,0,1.67,0,2.5,0A99.39,99.39,0,0,0,97,152.11a62.35,62.35,0,0,0,9.79,14.64c.13,7.13,7.12,12.9,15.72,12.9s15.59-5.77,15.71-12.9A62.35,62.35,0,0,0,148,152.11a99.75,99.75,0,0,0,9.45-30c.69,0,1.39,0,2.09,0A20.37,20.37,0,0,0,173,116.6c6.46-6.47,7.16-28,7.22-30.48a2.61,2.61,0,0,0-.77-1.92,2.65,2.65,0,0,0-1.92-.77c-2.43.06-24,.76-30.47,7.23a15.3,15.3,0,0,0-1.4,1.59A36,36,0,0,0,133.08,87c.63-3,2.43-8.92,7.09-10L172.44,74c7.11-1.25,12.33-6.22,15.1-14.39a39.92,39.92,0,0,0,2-11.52,2.63,2.63,0,0,0-2.62-2.62ZM90.2,99a2.67,2.67,0,0,0-3.69.4,2.63,2.63,0,0,0,.4,3.68,8.68,8.68,0,0,1,2,2.23A30.72,30.72,0,0,0,87.09,116c0,.28,0,.56,0,.85-4.3.28-9-1.07-11.9-3.94-3.37-3.37-5.11-15.56-5.58-24.1,8.55.47,20.74,2.2,24.11,5.57a10.79,10.79,0,0,1,1.21,1.46,26.05,26.05,0,0,0-3.47,4.33A15.49,15.49,0,0,0,90.2,99Zm32.27,75.41c-5.78,0-10.49-3.52-10.49-7.86s4.71-7.86,10.49-7.86S133,162.22,133,166.55s-4.71,7.86-10.48,7.86Zm28.32-80c3.37-3.37,15.56-5.1,24.11-5.57-.48,8.54-2.21,20.73-5.58,24.1a15.35,15.35,0,0,1-10,4,14.2,14.2,0,0,1-1.46,0c0-.29,0-.58,0-.87a30.73,30.73,0,0,0-2-11.07,8.7,8.7,0,0,1,1.72-1.83A2.62,2.62,0,1,0,154.32,99a12.61,12.61,0,0,0-1,.9,26.48,26.48,0,0,0-3.55-4.32,10.28,10.28,0,0,1,1-1.22ZM152.6,116c0,11.84-6.73,32.76-16.09,44.7-2.59-4.28-7.91-7.23-14-7.23s-11.46,2.94-14,7.23c-9.36-11.94-16.09-32.86-16.09-44.7,0-18.37,16.23-24.89,30.14-24.89S152.6,97.61,152.6,116Zm0,0" transform="translate(-55.39 -45.49)"/><path class="cls-2" d="M81.59,97.38A2.62,2.62,0,1,1,79,94.75a2.62,2.62,0,0,1,2.62,2.63Zm0,0" transform="translate(-55.39 -45.49)"/><path class="cls-2" d="M168.32,97.38a2.62,2.62,0,1,1-2.62-2.63,2.62,2.62,0,0,1,2.62,2.63Zm0,0" transform="translate(-55.39 -45.49)"/></svg>